RedHatText-Bold.ufo
<glyph name="numbersign" format="2">
  <advance width="750"/>
  <unicode hex="0023"/>
  <outline>
    <contour>
      <point x="54" y="0" type="line"/>
      <point x="192" y="0" type="line"/>
      <point x="255" y="184" type="line"/>
      <point x="381" y="184" type="line"/>
      <point x="318" y="0" type="line"/>
      <point x="455" y="0" type="line"/>
      <point x="518" y="184" type="line"/>
      <point x="659" y="184" type="line"/>
      <point x="659" y="298" type="line"/>
      <point x="557" y="298" type="line"/>
      <point x="593" y="402" type="line"/>
      <point x="707" y="402" type="line"/>
      <point x="707" y="516" type="line"/>
      <point x="632" y="516" type="line"/>
      <point x="695" y="700" type="line"/>
      <point x="558" y="700" type="line"/>
      <point x="495" y="516" type="line"/>
      <point x="369" y="516" type="line"/>
      <point x="432" y="700" type="line"/>
      <point x="294" y="700" type="line"/>
      <point x="231" y="516" type="line"/>
      <point x="90" y="516" type="line"/>
      <point x="90" y="402" type="line"/>
      <point x="192" y="402" type="line"/>
      <point x="156" y="298" type="line"/>
      <point x="43" y="298" type="line"/>
      <point x="43" y="184" type="line"/>
      <point x="117" y="184" type="line"/>
    </contour>
    <contour>
      <point x="294" y="298" type="line"/>
      <point x="330" y="402" type="line"/>
      <point x="456" y="402" type="line"/>
      <point x="420" y="298" type="line"/>
    </contour>
  </outline>
</glyph>
<glyph name="dollar" format="2">
  <advance width="594"/>
  <unicode hex="0024"/>
  <outline>
    <contour>
      <point x="251" y="-66" type="line"/>
      <point x="329" y="-66" type="line"/>
      <point x="329" y="21" type="line"/>
      <point x="471" y="33"/>
      <point x="554" y="109"/>
      <point x="554" y="230" type="curve" smooth="yes"/>
      <point x="554" y="317"/>
      <point x="503" y="373"/>
      <point x="400" y="398" type="curve" smooth="yes"/>
      <point x="329" y="415" type="line"/>
      <point x="329" y="546" type="line"/>
      <point x="378" y="537"/>
      <point x="427" y="518"/>
      <point x="475" y="489" type="curve"/>
      <point x="537" y="609" type="line"/>
      <point x="478" y="648"/>
      <point x="405" y="673"/>
      <point x="329" y="681" type="curve"/>
      <point x="329" y="768" type="line"/>
      <point x="251" y="768" type="line"/>
      <point x="251" y="682" type="line"/>
      <point x="111" y="673"/>
      <point x="31" y="599"/>
      <point x="31" y="478" type="curve" smooth="yes"/>
      <point x="31" y="386"/>
      <point x="81" y="327"/>
      <point x="178" y="303" type="curve" smooth="yes"/>
      <point x="251" y="285" type="line"/>
      <point x="251" y="154" type="line"/>
      <point x="196" y="162"/>
      <point x="141" y="182"/>
      <point x="89" y="214" type="curve"/>
      <point x="21" y="93" type="line"/>
      <point x="87" y="51"/>
      <point x="169" y="26"/>
      <point x="251" y="20" type="curve"/>
    </contour>
    <contour>
      <point x="251" y="430" type="line"/>
      <point x="242" y="432" type="line" smooth="yes"/>
      <point x="191" y="444"/>
      <point x="174" y="459"/>
      <point x="174" y="490" type="curve" smooth="yes"/>
      <point x="174" y="523"/>
      <point x="203" y="546"/>
      <point x="251" y="550" type="curve"/>
    </contour>
    <contour>
      <point x="329" y="153" type="curve"/>
      <point x="329" y="271" type="line"/>
      <point x="336" y="269" type="line" smooth="yes"/>
      <point x="391" y="253"/>
      <point x="406" y="241"/>
      <point x="406" y="211" type="curve" smooth="yes"/>
      <point x="406" y="179"/>
      <point x="379" y="158"/>
    </contour>
  </outline>
</glyph>
<glyph name="ampersand" format="2">
  <advance width="696"/>
  <unicode hex="0026"/>
  <outline>
    <contour>
      <point x="277" y="-11" type="curve" smooth="yes"/>
      <point x="353" y="-11"/>
      <point x="421" y="9"/>
      <point x="477" y="47" type="curve"/>
      <point x="507" y="22"/>
      <point x="538" y="-2"/>
      <point x="568" y="-24" type="curve"/>
      <point x="664" y="90" type="line"/>
      <point x="636" y="111"/>
      <point x="605" y="134"/>
      <point x="574" y="160" type="curve"/>
      <point x="610" y="215"/>
      <point x="637" y="286"/>
      <point x="658" y="374" type="curve"/>
      <point x="520" y="397" type="line"/>
      <point x="508" y="340"/>
      <point x="491" y="291"/>
      <point x="470" y="251" type="curve"/>
      <point x="430" y="287"/>
      <point x="392" y="324"/>
      <point x="359" y="358" type="curve"/>
      <point x="410" y="390" type="line" smooth="yes"/>
      <point x="473" y="428"/>
      <point x="504" y="478"/>
      <point x="504" y="538" type="curve" smooth="yes"/>
      <point x="504" y="637"/>
      <point x="418" y="711"/>
      <point x="302" y="711" type="curve" smooth="yes"/>
      <point x="183" y="711"/>
      <point x="96" y="634"/>
      <point x="96" y="530" type="curve" smooth="yes"/>
      <point x="96" y="475"/>
      <point x="111" y="432"/>
      <point x="152" y="379" type="curve"/>
      <point x="58" y="325"/>
      <point x="24" y="275"/>
      <point x="24" y="189" type="curve" smooth="yes"/>
      <point x="24" y="70"/>
      <point x="126" y="-11"/>
    </contour>
    <contour>
      <point x="282" y="449" type="line"/>
      <point x="250" y="487"/>
      <point x="240" y="509"/>
      <point x="240" y="533" type="curve" smooth="yes"/>
      <point x="240" y="568"/>
      <point x="264" y="593"/>
      <point x="298" y="593" type="curve" smooth="yes"/>
      <point x="332" y="593"/>
      <point x="359" y="567"/>
      <point x="359" y="533" type="curve" smooth="yes"/>
      <point x="359" y="507"/>
      <point x="347" y="489"/>
      <point x="317" y="470" type="curve" smooth="yes"/>
    </contour>
    <contour>
      <point x="289" y="115" type="curve" smooth="yes"/>
      <point x="217" y="115"/>
      <point x="173" y="148"/>
      <point x="173" y="202" type="curve" smooth="yes"/>
      <point x="173" y="235"/>
      <point x="189" y="258"/>
      <point x="229" y="284" type="curve"/>
      <point x="273" y="234"/>
      <point x="323" y="184"/>
      <point x="375" y="136" type="curve"/>
      <point x="349" y="121"/>
      <point x="321" y="115"/>
    </contour>
  </outline>
</glyph>
<glyph name="comma" format="2">
  <advance width="250"/>
  <unicode hex="002C"/>
  <outline>
    <contour>
      <point x="-10" y="-177" type="line"/>
      <point x="106" y="-177" type="line"/>
      <point x="224" y="127" type="line"/>
      <point x="65" y="127" type="line"/>
    </contour>
  </outline>
</glyph>
<glyph name="period" format="2">
  <advance width="250"/>
  <unicode hex="002E"/>
  <outline>
    <contour>
      <point x="125" y="-11" type="curve" smooth="yes"/>
      <point x="175" y="-11"/>
      <point x="216" y="32"/>
      <point x="216" y="84" type="curve" smooth="yes"/>
      <point x="216" y="136"/>
      <point x="175" y="179"/>
      <point x="125" y="179" type="curve" smooth="yes"/>
      <point x="75" y="179"/>
      <point x="34" y="136"/>
      <point x="34" y="84" type="curve" smooth="yes"/>
      <point x="34" y="32"/>
      <point x="75" y="-11"/>
    </contour>
  </outline>
</glyph>
<glyph name="zero" format="2">
  <advance width="690"/>
  <unicode hex="0030"/>
  <outline>
    <contour>
      <point x="345" y="-9" type="curve" smooth="yes"/>
      <point x="527" y="-9"/>
      <point x="648" y="135"/>
      <point x="648" y="351" type="curve" smooth="yes"/>
      <point x="648" y="567"/>
      <point x="527" y="711"/>
      <point x="345" y="711" type="curve" smooth="yes"/>
      <point x="163" y="711"/>
      <point x="42" y="567"/>
      <point x="42" y="351" type="curve" smooth="yes"/>
      <point x="42" y="135"/>
      <point x="163" y="-9"/>
    </contour>
    <contour>
      <point x="345" y="127" type="curve" smooth="yes"/>
      <point x="253" y="127"/>
      <point x="195" y="214"/>
      <point x="195" y="351" type="curve" smooth="yes"/>
      <point x="195" y="488"/>
      <point x="253" y="575"/>
      <point x="345" y="575" type="curve" smooth="yes"/>
      <point x="437" y="575"/>
      <point x="495" y="488"/>
      <point x="495" y="351" type="curve" smooth="yes"/>
      <point x="495" y="214"/>
      <point x="437" y="127"/>
    </contour>
  </outline>
</glyph>
<glyph name="one" format="2">
  <advance width="385"/>
  <unicode hex="0031"/>
  <outline>
    <contour>
      <point x="170" y="0" type="line"/>
      <point x="324" y="0" type="line"/>
      <point x="324" y="700" type="line"/>
      <point x="227" y="700" type="line"/>
      <point x="32" y="619" type="line"/>
      <point x="32" y="483" type="line"/>
      <point x="170" y="540" type="line"/>
    </contour>
  </outline>
</glyph>
<glyph name="nine" format="2">
  <advance width="651"/>
  <unicode hex="0039"/>
  <outline>
    <contour>
      <point x="295" y="711" type="curve" smooth="yes"/>
      <point x="146" y="711"/>
      <point x="36" y="612"/>
      <point x="36" y="479" type="curve" smooth="yes"/>
      <point x="36" y="355"/>
      <point x="133" y="267"/>
      <point x="271" y="267" type="curve" smooth="yes"/>
      <point x="341" y="267"/>
      <point x="406" y="303"/>
      <point x="450" y="366" type="curve"/>
      <point x="450" y="213"/>
      <point x="389" y="127"/>
      <point x="275" y="127" type="curve" smooth="yes"/>
      <point x="219" y="127"/>
      <point x="178" y="142"/>
      <point x="139" y="175" type="curve"/>
      <point x="50" y="65" type="line"/>
      <point x="99" y="19"/>
      <point x="185" y="-11"/>
      <point x="263" y="-11" type="curve" smooth="yes"/>
      <point x="467" y="-11"/>
      <point x="603" y="138"/>
      <point x="603" y="361" type="curve" smooth="yes"/>
      <point x="603" y="570"/>
      <point x="479" y="711"/>
    </contour>
    <contour>
      <point x="297" y="387" type="curve" smooth="yes"/>
      <point x="232" y="387"/>
      <point x="187" y="426"/>
      <point x="187" y="482" type="curve" smooth="yes"/>
      <point x="187" y="538"/>
      <point x="237" y="579"/>
      <point x="303" y="579" type="curve" smooth="yes"/>
      <point x="370" y="579"/>
      <point x="421" y="528"/>
      <point x="441" y="448" type="curve"/>
      <point x="404" y="409"/>
      <point x="354" y="387"/>
    </contour>
  </outline>
</glyph>
<glyph name="question" format="2">
  <advance width="537"/>
  <unicode hex="003F"/>
  <outline>
    <contour>
      <point x="182" y="229" type="curve"/>
      <point x="311" y="229" type="line"/>
      <point x="310" y="271"/>
      <point x="321" y="292"/>
      <point x="359" y="319" type="curve" smooth="yes"/>
      <point x="383" y="336" type="line" smooth="yes"/>
      <point x="474" y="401"/>
      <point x="503" y="446"/>
      <point x="503" y="519" type="curve" smooth="yes"/>
      <point x="503" y="628"/>
      <point x="403" y="711"/>
      <point x="271" y="711" type="curve" smooth="yes"/>
      <point x="153" y="711"/>
      <point x="54" y="645"/>
      <point x="18" y="542" type="curve"/>
      <point x="143" y="493" type="line"/>
      <point x="161" y="544"/>
      <point x="209" y="577"/>
      <point x="265" y="577" type="curve" smooth="yes"/>
      <point x="316" y="577"/>
      <point x="352" y="548"/>
      <point x="352" y="509" type="curve" smooth="yes"/>
      <point x="352" y="488"/>
      <point x="337" y="466"/>
      <point x="305" y="440" type="curve" smooth="yes"/>
      <point x="253" y="400" type="line" smooth="yes"/>
      <point x="193" y="354"/>
      <point x="177" y="314"/>
    </contour>
    <contour>
      <point x="247" y="-11" type="curve" smooth="yes"/>
      <point x="296" y="-11"/>
      <point x="336" y="30"/>
      <point x="336" y="80" type="curve" smooth="yes"/>
      <point x="336" y="130"/>
      <point x="296" y="171"/>
      <point x="247" y="171" type="curve" smooth="yes"/>
      <point x="198" y="171"/>
      <point x="158" y="130"/>
      <point x="158" y="80" type="curve" smooth="yes"/>
      <point x="158" y="30"/>
      <point x="198" y="-11"/>
    </contour>
  </outline>
</glyph>
<glyph name="at" format="2">
  <advance width="782"/>
  <unicode hex="0040"/>
  <outline>
    <contour>
      <point x="407" y="-144" type="curve" smooth="yes"/>
      <point x="469" y="-144"/>
      <point x="526" y="-130"/>
      <point x="587" y="-101" type="curve"/>
      <point x="561" y="-39" type="line"/>
      <point x="515" y="-63"/>
      <point x="464" y="-74"/>
      <point x="406" y="-74" type="curve" smooth="yes"/>
      <point x="239" y="-74"/>
      <point x="123" y="44"/>
      <point x="123" y="214" type="curve" smooth="yes"/>
      <point x="123" y="387"/>
      <point x="245" y="519"/>
      <point x="404" y="519" type="curve" smooth="yes"/>
      <point x="548" y="519"/>
      <point x="657" y="413"/>
      <point x="657" y="272" type="curve" smooth="yes"/>
      <point x="657" y="181"/>
      <point x="618" y="119"/>
      <point x="561" y="119" type="curve" smooth="yes"/>
      <point x="531" y="119"/>
      <point x="517" y="136"/>
      <point x="524" y="167" type="curve" smooth="yes"/>
      <point x="566" y="375" type="line"/>
      <point x="467" y="375" type="line"/>
      <point x="464" y="358" type="line"/>
      <point x="441" y="377"/>
      <point x="411" y="388"/>
      <point x="378" y="388" type="curve" smooth="yes"/>
      <point x="282" y="388"/>
      <point x="207" y="307"/>
      <point x="207" y="203" type="curve" smooth="yes"/>
      <point x="207" y="116"/>
      <point x="268" y="47"/>
      <point x="346" y="47" type="curve" smooth="yes"/>
      <point x="381" y="47"/>
      <point x="416" y="61"/>
      <point x="445" y="86" type="curve"/>
      <point x="464" y="60"/>
      <point x="499" y="46"/>
      <point x="546" y="46" type="curve" smooth="yes"/>
      <point x="654" y="46"/>
      <point x="730" y="142"/>
      <point x="730" y="279" type="curve" smooth="yes"/>
      <point x="730" y="450"/>
      <point x="589" y="583"/>
      <point x="407" y="583" type="curve" smooth="yes"/>
      <point x="203" y="583"/>
      <point x="52" y="424"/>
      <point x="52" y="207" type="curve" smooth="yes"/>
      <point x="52" y="4"/>
      <point x="201" y="-144"/>
    </contour>
    <contour>
      <point x="370" y="131" type="curve" smooth="yes"/>
      <point x="330" y="131"/>
      <point x="301" y="165"/>
      <point x="301" y="212" type="curve" smooth="yes"/>
      <point x="301" y="260"/>
      <point x="338" y="301"/>
      <point x="382" y="301" type="curve" smooth="yes"/>
      <point x="410" y="301"/>
      <point x="432" y="290"/>
      <point x="447" y="269" type="curve"/>
      <point x="430" y="182" type="line" smooth="yes"/>
      <point x="428" y="172"/>
      <point x="427" y="163"/>
      <point x="427" y="153" type="curve"/>
      <point x="409" y="138"/>
      <point x="390" y="131"/>
    </contour>
  </outline>
</glyph>
<glyph name="A" format="2">
  <advance width="742"/>
  <unicode hex="0041"/>
  <anchor x="372" y="700" name="top"/>
  <anchor x="740" y="0" name="bottom"/>
  <outline>
    <contour>
      <point x="2" y="0" type="line"/>
      <point x="181" y="0" type="line"/>
      <point x="240" y="167" type="line"/>
      <point x="496" y="167" type="line"/>
      <point x="554" y="0" type="line"/>
      <point x="740" y="0" type="line"/>
      <point x="471" y="700" type="line"/>
      <point x="275" y="700" type="line"/>
    </contour>
    <contour>
      <point x="287" y="300" type="line"/>
      <point x="369" y="532" type="line"/>
      <point x="450" y="300" type="line"/>
    </contour>
  </outline>
</glyph>
<glyph name="B" format="2">
  <advance width="729"/>
  <unicode hex="0042"/>
  <outline>
    <contour>
      <point x="78" y="0" type="line"/>
      <point x="440" y="0" type="line" smooth="yes"/>
      <point x="579" y="0"/>
      <point x="677" y="81"/>
      <point x="677" y="196" type="curve" smooth="yes"/>
      <point x="677" y="268"/>
      <point x="628" y="328"/>
      <point x="555" y="357" type="curve"/>
      <point x="616" y="389"/>
      <point x="657" y="444"/>
      <point x="657" y="509" type="curve" smooth="yes"/>
      <point x="657" y="620"/>
      <point x="560" y="700"/>
      <point x="424" y="700" type="curve" smooth="yes"/>
      <point x="78" y="700" type="line"/>
    </contour>
    <contour>
      <point x="250" y="419" type="line"/>
      <point x="250" y="563" type="line"/>
      <point x="404" y="563" type="line" smooth="yes"/>
      <point x="453" y="563"/>
      <point x="484" y="535"/>
      <point x="484" y="491" type="curve" smooth="yes"/>
      <point x="484" y="448"/>
      <point x="452" y="419"/>
      <point x="404" y="419" type="curve" smooth="yes"/>
    </contour>
    <contour>
      <point x="250" y="137" type="line"/>
      <point x="250" y="291" type="line"/>
      <point x="418" y="291" type="line" smooth="yes"/>
      <point x="470" y="291"/>
      <point x="503" y="261"/>
      <point x="503" y="214" type="curve" smooth="yes"/>
      <point x="503" y="167"/>
      <point x="470" y="137"/>
      <point x="418" y="137" type="curve" smooth="yes"/>
    </contour>
  </outline>
</glyph>
<glyph name="H" format="2">
  <advance width="763"/>
  <unicode hex="0048"/>
  <anchor x="382" y="700" name="top"/>
  <outline>
    <contour>
      <point x="68" y="0" type="line"/>
      <point x="240" y="0" type="line"/>
      <point x="240" y="277" type="line"/>
      <point x="523" y="277" type="line"/>
      <point x="523" y="0" type="line"/>
      <point x="695" y="0" type="line"/>
      <point x="695" y="700" type="line"/>
      <point x="523" y="700" type="line"/>
      <point x="523" y="428" type="line"/>
      <point x="240" y="428" type="line"/>
      <point x="240" y="700" type="line"/>
      <point x="68" y="700" type="line"/>
    </contour>
  </outline>
</glyph>
<glyph name="I" format="2">
  <advance width="308"/>
  <unicode hex="0049"/>
  <anchor x="154" y="700" name="top"/>
  <anchor x="240" y="0" name="bottom"/>
  <outline>
    <contour>
      <point x="68" y="0" type="line"/>
      <point x="240" y="0" type="line"/>
      <point x="240" y="700" type="line"/>
      <point x="68" y="700" type="line"/>
    </contour>
  </outline>
</glyph>
<glyph name="J" format="2">
  <advance width="670"/>
  <unicode hex="004A"/>
  <anchor x="513" y="700" name="top"/>
  <outline>
    <contour>
      <point x="314" y="-10" type="curve" smooth="yes"/>
      <point x="489" y="-10"/>
      <point x="606" y="104"/>
      <point x="606" y="274" type="curve" smooth="yes"/>
      <point x="606" y="700" type="line"/>
      <point x="434" y="700" type="line"/>
      <point x="434" y="279" type="line" smooth="yes"/>
      <point x="434" y="197"/>
      <point x="386" y="141"/>
      <point x="315" y="141" type="curve" smooth="yes"/>
      <point x="251" y="141"/>
      <point x="209" y="179"/>
      <point x="185" y="261" type="curve"/>
      <point x="26" y="204" type="line"/>
      <point x="66" y="65"/>
      <point x="169" y="-10"/>
    </contour>
  </outline>
</glyph>
<glyph name="M" format="2">
  <advance width="925"/>
  <unicode hex="004D"/>
  <outline>
    <contour>
      <point x="78" y="0" type="line"/>
      <point x="236" y="0" type="line"/>
      <point x="236" y="479" type="line"/>
      <point x="461" y="50" type="line"/>
      <point x="685" y="475" type="line"/>
      <point x="685" y="0" type="line"/>
      <point x="847" y="0" type="line"/>
      <point x="847" y="700" type="line"/>
      <point x="631" y="700" type="line"/>
      <point x="463" y="364" type="line"/>
      <point x="294" y="700" type="line"/>
      <point x="78" y="700" type="line"/>
    </contour>
  </outline>
</glyph>
<glyph name="Q" format="2">
  <advance width="814"/>
  <unicode hex="0051"/>
  <outline>
    <contour>
      <point x="594" y="-52" type="line"/>
      <point x="740" y="2" type="line"/>
      <point x="665" y="95" type="line"/>
      <point x="730" y="160"/>
      <point x="769" y="250"/>
      <point x="769" y="350" type="curve" smooth="yes"/>
      <point x="769" y="552"/>
      <point x="610" y="711"/>
      <point x="407" y="711" type="curve" smooth="yes"/>
      <point x="204" y="711"/>
      <point x="45" y="552"/>
      <point x="45" y="350" type="curve" smooth="yes"/>
      <point x="45" y="148"/>
      <point x="204" y="-11"/>
      <point x="407" y="-11" type="curve" smooth="yes"/>
      <point x="455" y="-11"/>
      <point x="500" y="-2"/>
      <point x="541" y="14" type="curve"/>
    </contour>
    <contour>
      <point x="407" y="142" type="curve" smooth="yes"/>
      <point x="302" y="142"/>
      <point x="222" y="231"/>
      <point x="222" y="350" type="curve" smooth="yes"/>
      <point x="222" y="469"/>
      <point x="302" y="558"/>
      <point x="407" y="558" type="curve" smooth="yes"/>
      <point x="512" y="558"/>
      <point x="592" y="469"/>
      <point x="592" y="350" type="curve" smooth="yes"/>
      <point x="592" y="304"/>
      <point x="580" y="263"/>
      <point x="560" y="230" type="curve"/>
      <point x="513" y="289" type="line"/>
      <point x="367" y="235" type="line"/>
      <point x="438" y="145" type="line"/>
      <point x="428" y="143"/>
      <point x="418" y="142"/>
    </contour>
  </outline>
</glyph>
<glyph name="T" format="2">
  <advance width="664"/>
  <unicode hex="0054"/>
  <anchor x="332" y="700" name="top"/>
  <anchor x="332" y="0" name="bottom"/>
  <outline>
    <contour>
      <point x="246" y="0" type="line"/>
      <point x="418" y="0" type="line"/>
      <point x="418" y="553" type="line"/>
      <point x="643" y="553" type="line"/>
      <point x="643" y="700" type="line"/>
      <point x="21" y="700" type="line"/>
      <point x="21" y="553" type="line"/>
      <point x="246" y="553" type="line"/>
    </contour>
  </outline>
</glyph>
<glyph name="U" format="2">
  <advance width="748"/>
  <unicode hex="0055"/>
  <anchor x="370" y="700" name="top"/>
  <anchor x="463" y="0" name="bottom"/>
  <outline>
    <contour>
      <point x="374" y="-10" type="curve" smooth="yes"/>
      <point x="563" y="-10"/>
      <point x="684" y="112"/>
      <point x="684" y="304" type="curve" smooth="yes"/>
      <point x="684" y="700" type="line"/>
      <point x="512" y="700" type="line"/>
      <point x="512" y="304" type="line" smooth="yes"/>
      <point x="512" y="207"/>
      <point x="458" y="144"/>
      <point x="374" y="144" type="curve" smooth="yes"/>
      <point x="290" y="144"/>
      <point x="236" y="207"/>
      <point x="236" y="304" type="curve" smooth="yes"/>
      <point x="236" y="700" type="line"/>
      <point x="64" y="700" type="line"/>
      <point x="64" y="304" type="line" smooth="yes"/>
      <point x="64" y="112"/>
      <point x="185" y="-10"/>
    </contour>
  </outline>
</glyph>
<glyph name="backslash" format="2">
  <advance width="543"/>
  <unicode hex="005C"/>
  <outline>
    <contour>
      <point x="434" y="-209" type="line"/>
      <point x="596" y="-209" type="line"/>
      <point x="194" y="700" type="line"/>
      <point x="31" y="700" type="line"/>
    </contour>
  </outline>
</glyph>
<glyph name="underscore" format="2">
  <advance width="473"/>
  <unicode hex="005F"/>
  <outline>
    <contour>
      <point x="-1" y="-191" type="line"/>
      <point x="475" y="-191" type="line"/>
      <point x="475" y="-80" type="line"/>
      <point x="-1" y="-80" type="line"/>
    </contour>
  </outline>
</glyph>
<glyph name="grave" format="2">
  <advance width="600"/>
  <unicode hex="0060"/>
  <outline>
    <contour>
      <point x="258" y="601" type="line"/>
      <point x="406" y="601" type="line"/>
      <point x="268" y="747" type="line"/>
      <point x="66" y="747" type="line"/>
    </contour>
  </outline>
</glyph>
<glyph name="a" format="2">
  <advance width="579"/>
  <unicode hex="0061"/>
  <note>
Version created Mon Aug  6 16:22:34 2018
</note>
  <anchor x="294" y="516" name="top"/>
  <anchor x="520" y="0" name="bottom"/>
  <outline>
    <contour>
      <point x="217" y="-8" type="curve" smooth="yes"/>
      <point x="272" y="-8"/>
      <point x="315" y="7"/>
      <point x="360" y="45" type="curve"/>
      <point x="360" y="0" type="line"/>
      <point x="520" y="0" type="line"/>
      <point x="520" y="330" type="line" smooth="yes"/>
      <point x="520" y="453"/>
      <point x="437" y="524"/>
      <point x="294" y="524" type="curve" smooth="yes"/>
      <point x="218" y="524"/>
      <point x="142" y="506"/>
      <point x="57" y="468" type="curve"/>
      <point x="113" y="355" type="line"/>
      <point x="173" y="380"/>
      <point x="219" y="391"/>
      <point x="258" y="391" type="curve" smooth="yes"/>
      <point x="327" y="391"/>
      <point x="360" y="366"/>
      <point x="360" y="316" type="curve" smooth="yes"/>
      <point x="360" y="274" type="line"/>
      <point x="314" y="291"/>
      <point x="277" y="298"/>
      <point x="240" y="298" type="curve" smooth="yes"/>
      <point x="113" y="298"/>
      <point x="39" y="243"/>
      <point x="39" y="148" type="curve" smooth="yes"/>
      <point x="39" y="56"/>
      <point x="112" y="-8"/>
    </contour>
    <contour>
      <point x="188" y="151" type="curve" smooth="yes"/>
      <point x="188" y="184"/>
      <point x="218" y="202"/>
      <point x="271" y="202" type="curve" smooth="yes"/>
      <point x="301" y="202"/>
      <point x="330" y="198"/>
      <point x="360" y="191" type="curve"/>
      <point x="360" y="125" type="line"/>
      <point x="332" y="108"/>
      <point x="301" y="99"/>
      <point x="267" y="99" type="curve" smooth="yes"/>
      <point x="217" y="99"/>
      <point x="188" y="118"/>
    </contour>
  </outline>
</glyph>
<glyph name="b" format="2">
  <advance width="644"/>
  <unicode hex="0062"/>
  <outline>
    <contour>
      <point x="63" y="0" type="line"/>
      <point x="223" y="0" type="line"/>
      <point x="223" y="63" type="line"/>
      <point x="258" y="21"/>
      <point x="308" y="-3"/>
      <point x="364" y="-3" type="curve" smooth="yes"/>
      <point x="498" y="-3"/>
      <point x="604" y="112"/>
      <point x="604" y="257" type="curve" smooth="yes"/>
      <point x="604" y="402"/>
      <point x="503" y="519"/>
      <point x="376" y="519" type="curve" smooth="yes"/>
      <point x="315" y="519"/>
      <point x="259" y="492"/>
      <point x="225" y="450" type="curve"/>
      <point x="225" y="737" type="line"/>
      <point x="63" y="712" type="line"/>
    </contour>
    <contour>
      <point x="322" y="130" type="curve" smooth="yes"/>
      <point x="284" y="130"/>
      <point x="250" y="145"/>
      <point x="225" y="171" type="curve"/>
      <point x="225" y="343" type="line"/>
      <point x="251" y="371"/>
      <point x="282" y="385"/>
      <point x="322" y="385" type="curve" smooth="yes"/>
      <point x="392" y="385"/>
      <point x="445" y="331"/>
      <point x="445" y="258" type="curve" smooth="yes"/>
      <point x="445" y="184"/>
      <point x="393" y="130"/>
    </contour>
  </outline>
</glyph>
<glyph name="c" format="2">
  <advance width="539"/>
  <unicode hex="0063"/>
  <anchor x="301" y="516" name="top"/>
  <anchor x="306" y="0" name="bottom"/>
  <outline>
    <contour>
      <point x="307" y="-10" type="curve" smooth="yes"/>
      <point x="392" y="-10"/>
      <point x="470" y="24"/>
      <point x="522" y="85" type="curve"/>
      <point x="423" y="184" type="line"/>
      <point x="390" y="145"/>
      <point x="357" y="128"/>
      <point x="313" y="128" type="curve" smooth="yes"/>
      <point x="249" y="128"/>
      <point x="201" y="183"/>
      <point x="201" y="257" type="curve" smooth="yes"/>
      <point x="201" y="331"/>
      <point x="249" y="386"/>
      <point x="313" y="386" type="curve" smooth="yes"/>
      <point x="357" y="386"/>
      <point x="390" y="369"/>
      <point x="423" y="330" type="curve"/>
      <point x="522" y="429" type="line"/>
      <point x="470" y="490"/>
      <point x="392" y="524"/>
      <point x="307" y="524" type="curve" smooth="yes"/>
      <point x="156" y="524"/>
      <point x="40" y="408"/>
      <point x="40" y="257" type="curve" smooth="yes"/>
      <point x="40" y="106"/>
      <point x="156" y="-10"/>
    </contour>
  </outline>
</glyph>
<glyph name="h" format="2">
  <advance width="618"/>
  <unicode hex="0068"/>
  <anchor x="139" y="699" name="top"/>
  <outline>
    <contour>
      <point x="63" y="0" type="line"/>
      <point x="225" y="0" type="line"/>
      <point x="225" y="354" type="line"/>
      <point x="248" y="383"/>
      <point x="276" y="397"/>
      <point x="311" y="397" type="curve" smooth="yes"/>
      <point x="363" y="397"/>
      <point x="397" y="359"/>
      <point x="397" y="301" type="curve" smooth="yes"/>
      <point x="397" y="0" type="line"/>
      <point x="559" y="0" type="line"/>
      <point x="559" y="348" type="line" smooth="yes"/>
      <point x="559" y="451"/>
      <point x="488" y="524"/>
      <point x="388" y="524" type="curve" smooth="yes"/>
      <point x="321" y="524"/>
      <point x="265" y="492"/>
      <point x="225" y="432" type="curve"/>
      <point x="225" y="737" type="line"/>
      <point x="63" y="712" type="line"/>
    </contour>
  </outline>
</glyph>
<glyph name="j" format="2">
  <advance width="288"/>
  <unicode hex="006A"/>
  <outline>
    <contour>
      <point x="144" y="595" type="curve" smooth="yes"/>
      <point x="194" y="595"/>
      <point x="235" y="636"/>
      <point x="235" y="686" type="curve" smooth="yes"/>
      <point x="235" y="736"/>
      <point x="194" y="777"/>
      <point x="144" y="777" type="curve" smooth="yes"/>
      <point x="94" y="777"/>
      <point x="53" y="736"/>
      <point x="53" y="686" type="curve" smooth="yes"/>
      <point x="53" y="636"/>
      <point x="94" y="595"/>
    </contour>
    <contour>
      <point x="46" y="-219" type="curve" smooth="yes"/>
      <point x="160" y="-219"/>
      <point x="225" y="-158"/>
      <point x="225" y="-53" type="curve" smooth="yes"/>
      <point x="225" y="516" type="line"/>
      <point x="63" y="516" type="line"/>
      <point x="63" y="-46" type="line" smooth="yes"/>
      <point x="63" y="-76"/>
      <point x="47" y="-90"/>
      <point x="11" y="-90" type="curve" smooth="yes"/>
      <point x="-7" y="-90"/>
      <point x="-20" y="-89"/>
      <point x="-34" y="-86" type="curve"/>
      <point x="-34" y="-209" type="line"/>
      <point x="-17" y="-215"/>
      <point x="18" y="-219"/>
    </contour>
  </outline>
</glyph>
<glyph name="l" format="2">
  <advance width="288"/>
  <unicode hex="006C"/>
  <anchor x="144" y="695" name="top"/>
  <anchor x="144" y="0" name="bottom"/>
  <outline>
    <contour>
      <point x="63" y="0" type="line"/>
      <point x="225" y="0" type="line"/>
      <point x="225" y="737" type="line"/>
      <point x="63" y="712" type="line"/>
    </contour>
  </outline>
</glyph>
<glyph name="m" format="2">
  <advance width="913"/>
  <unicode hex="006D"/>
  <outline>
    <contour>
      <point x="63" y="0" type="line"/>
      <point x="225" y="0" type="line"/>
      <point x="225" y="357" type="line"/>
      <point x="246" y="384"/>
      <point x="271" y="397"/>
      <point x="301" y="397" type="curve" smooth="yes"/>
      <point x="347" y="397"/>
      <point x="378" y="363"/>
      <point x="378" y="311" type="curve" smooth="yes"/>
      <point x="378" y="0" type="line"/>
      <point x="540" y="0" type="line"/>
      <point x="540" y="343" type="line" smooth="yes"/>
      <point x="540" y="348"/>
      <point x="540" y="353"/>
      <point x="540" y="358" type="curve"/>
      <point x="561" y="385"/>
      <point x="585" y="397"/>
      <point x="615" y="397" type="curve" smooth="yes"/>
      <point x="661" y="397"/>
      <point x="692" y="363"/>
      <point x="692" y="311" type="curve" smooth="yes"/>
      <point x="692" y="0" type="line"/>
      <point x="854" y="0" type="line"/>
      <point x="854" y="343" type="line" smooth="yes"/>
      <point x="854" y="449"/>
      <point x="787" y="524"/>
      <point x="692" y="524" type="curve" smooth="yes"/>
      <point x="621" y="524"/>
      <point x="563" y="490"/>
      <point x="523" y="428" type="curve"/>
      <point x="498" y="487"/>
      <point x="445" y="524"/>
      <point x="378" y="524" type="curve" smooth="yes"/>
      <point x="315" y="524"/>
      <point x="263" y="493"/>
      <point x="225" y="434" type="curve"/>
      <point x="225" y="516" type="line"/>
      <point x="63" y="516" type="line"/>
    </contour>
  </outline>
</glyph>
<glyph name="q" format="2">
  <advance width="643"/>
  <unicode hex="0071"/>
  <outline>
    <contour>
      <point x="418" y="-211" type="line"/>
      <point x="580" y="-211" type="line"/>
      <point x="580" y="516" type="line"/>
      <point x="420" y="516" type="line"/>
      <point x="420" y="454" type="line"/>
      <point x="385" y="496"/>
      <point x="335" y="519"/>
      <point x="280" y="519" type="curve" smooth="yes"/>
      <point x="146" y="519"/>
      <point x="40" y="404"/>
      <point x="40" y="259" type="curve" smooth="yes"/>
      <point x="40" y="114"/>
      <point x="141" y="-3"/>
      <point x="268" y="-3" type="curve" smooth="yes"/>
      <point x="328" y="-3"/>
      <point x="384" y="23"/>
      <point x="418" y="65" type="curve"/>
    </contour>
    <contour>
      <point x="322" y="131" type="curve" smooth="yes"/>
      <point x="252" y="131"/>
      <point x="199" y="185"/>
      <point x="199" y="258" type="curve" smooth="yes"/>
      <point x="199" y="332"/>
      <point x="251" y="386"/>
      <point x="322" y="386" type="curve" smooth="yes"/>
      <point x="359" y="386"/>
      <point x="393" y="372"/>
      <point x="418" y="346" type="curve"/>
      <point x="418" y="172" type="line"/>
      <point x="393" y="145"/>
      <point x="361" y="131"/>
    </contour>
  </outline>
</glyph>
<glyph name="r" format="2">
  <advance width="442"/>
  <unicode hex="0072"/>
  <anchor x="266" y="516" name="top"/>
  <anchor x="142" y="0" name="bottom"/>
  <outline>
    <contour>
      <point x="63" y="0" type="line"/>
      <point x="225" y="0" type="line"/>
      <point x="225" y="326" type="line"/>
      <point x="251" y="365"/>
      <point x="295" y="390"/>
      <point x="343" y="390" type="curve" smooth="yes"/>
      <point x="371" y="390"/>
      <point x="399" y="384"/>
      <point x="419" y="374" type="curve"/>
      <point x="419" y="513" type="line"/>
      <point x="399" y="523"/>
      <point x="388" y="525"/>
      <point x="365" y="526" type="curve" smooth="yes"/>
      <point x="304" y="526"/>
      <point x="258" y="485"/>
      <point x="225" y="399" type="curve"/>
      <point x="225" y="516" type="line"/>
      <point x="63" y="516" type="line"/>
    </contour>
  </outline>
</glyph>
<glyph name="t" format="2">
  <advance width="458"/>
  <unicode hex="0074"/>
  <anchor x="282" y="0" name="bottom"/>
  <outline>
    <contour>
      <point x="316" y="-10" type="curve" smooth="yes"/>
      <point x="349" y="-10"/>
      <point x="397" y="-3"/>
      <point x="427" y="6" type="curve"/>
      <point x="427" y="137" type="line"/>
      <point x="395" y="128"/>
      <point x="380" y="126"/>
      <point x="361" y="126" type="curve" smooth="yes"/>
      <point x="311" y="126"/>
      <point x="293" y="142"/>
      <point x="293" y="188" type="curve" smooth="yes"/>
      <point x="293" y="391" type="line"/>
      <point x="431" y="391" type="line"/>
      <point x="431" y="516" type="line"/>
      <point x="293" y="516" type="line"/>
      <point x="293" y="692" type="line"/>
      <point x="131" y="659" type="line"/>
      <point x="131" y="516" type="line"/>
      <point x="31" y="516" type="line"/>
      <point x="31" y="391" type="line"/>
      <point x="131" y="391" type="line"/>
      <point x="131" y="156" type="line" smooth="yes"/>
      <point x="131" y="46"/>
      <point x="194" y="-10"/>
    </contour>
  </outline>
</glyph>
<glyph name="v" format="2">
  <advance width="592"/>
  <unicode hex="0076"/>
  <outline>
    <contour>
      <point x="216" y="0" type="line"/>
      <point x="374" y="0" type="line"/>
      <point x="585" y="516" type="line"/>
      <point x="418" y="516" type="line"/>
      <point x="300" y="192" type="line"/>
      <point x="183" y="516" type="line"/>
      <point x="7" y="516" type="line"/>
    </contour>
  </outline>
</glyph>
<glyph name="x" format="2">
  <advance width="591"/>
  <unicode hex="0078"/>
  <outline>
    <contour>
      <point x="10" y="0" type="line"/>
      <point x="189" y="0" type="line"/>
      <point x="291" y="147" type="line"/>
      <point x="393" y="0" type="line"/>
      <point x="581" y="0" type="line"/>
      <point x="385" y="260" type="line"/>
      <point x="575" y="516" type="line"/>
      <point x="395" y="516" type="line"/>
      <point x="299" y="377" type="line"/>
      <point x="203" y="516" type="line"/>
      <point x="16" y="516" type="line"/>
      <point x="203" y="263" type="line"/>
    </contour>
  </outline>
</glyph>
<glyph name="bar" format="2">
  <advance width="356"/>
  <unicode hex="007C"/>
  <outline>
    <contour>
      <point x="106" y="-209" type="line"/>
      <point x="250" y="-209" type="line"/>
      <point x="250" y="700" type="line"/>
      <point x="106" y="700" type="line"/>
    </contour>
  </outline>
</glyph>
<glyph name="asciitilde" format="2">
  <advance width="600"/>
  <unicode hex="007E"/>
  <outline>
    <contour>
      <point x="133" y="279" type="line"/>
      <point x="138" y="329"/>
      <point x="157" y="353"/>
      <point x="190" y="353" type="curve" smooth="yes"/>
      <point x="204" y="353"/>
      <point x="218" y="348"/>
      <point x="246" y="335" type="curve" smooth="yes"/>
      <point x="334" y="292" type="line" smooth="yes"/>
      <point x="362" y="277"/>
      <point x="396" y="269"/>
      <point x="426" y="269" type="curve" smooth="yes"/>
      <point x="507" y="269"/>
      <point x="559" y="333"/>
      <point x="573" y="449" type="curve"/>
      <point x="467" y="461" type="line"/>
      <point x="461" y="411"/>
      <point x="442" y="387"/>
      <point x="409" y="387" type="curve" smooth="yes"/>
      <point x="396" y="387"/>
      <point x="380" y="392"/>
      <point x="353" y="405" type="curve" smooth="yes"/>
      <point x="265" y="448" type="line" smooth="yes"/>
      <point x="236" y="463"/>
      <point x="204" y="471"/>
      <point x="173" y="471" type="curve" smooth="yes"/>
      <point x="92" y="471"/>
      <point x="40" y="407"/>
      <point x="27" y="291" type="curve"/>
    </contour>
  </outline>
</glyph>
<glyph name="cent" format="2">
  <advance width="540"/>
  <unicode hex="00A2"/>
  <outline>
    <contour>
      <point x="278" y="-110" type="line"/>
      <point x="346" y="-110" type="line"/>
      <point x="346" y="-8" type="line"/>
      <point x="416" y="1"/>
      <point x="478" y="33"/>
      <point x="522" y="85" type="curve"/>
      <point x="423" y="184" type="line"/>
      <point x="399" y="155"/>
      <point x="375" y="139"/>
      <point x="346" y="132" type="curve"/>
      <point x="346" y="382" type="line"/>
      <point x="375" y="375"/>
      <point x="399" y="359"/>
      <point x="423" y="330" type="curve"/>
      <point x="522" y="429" type="line"/>
      <point x="478" y="481"/>
      <point x="416" y="513"/>
      <point x="346" y="522" type="curve"/>
      <point x="346" y="625" type="line"/>
      <point x="278" y="625" type="line"/>
      <point x="278" y="523" type="line"/>
      <point x="141" y="509"/>
      <point x="40" y="398"/>
      <point x="40" y="257" type="curve" smooth="yes"/>
      <point x="40" y="116"/>
      <point x="141" y="5"/>
      <point x="278" y="-9" type="curve"/>
    </contour>
    <contour>
      <point x="201" y="257" type="curve" smooth="yes"/>
      <point x="201" y="317"/>
      <point x="232" y="364"/>
      <point x="278" y="380" type="curve"/>
      <point x="278" y="134" type="line"/>
      <point x="232" y="150"/>
      <point x="201" y="197"/>
    </contour>
  </outline>
</glyph>
<glyph name="sterling" format="2">
  <advance width="659"/>
  <unicode hex="00A3"/>
  <outline>
    <contour>
      <point x="474" y="-31" type="curve" smooth="yes"/>
      <point x="548" y="-31"/>
      <point x="605" y="8"/>
      <point x="649" y="89" type="curve"/>
      <point x="531" y="159" type="line"/>
      <point x="510" y="118"/>
      <point x="485" y="99"/>
      <point x="449" y="99" type="curve" smooth="yes"/>
      <point x="437" y="99"/>
      <point x="424" y="101"/>
      <point x="410" y="105" type="curve" smooth="yes"/>
      <point x="276" y="144" type="line"/>
      <point x="295" y="166"/>
      <point x="304" y="193"/>
      <point x="304" y="224" type="curve" smooth="yes"/>
      <point x="304" y="236"/>
      <point x="302" y="249"/>
      <point x="298" y="275" type="curve"/>
      <point x="446" y="275" type="line"/>
      <point x="446" y="377" type="line"/>
      <point x="276" y="377" type="line"/>
      <point x="263" y="444"/>
      <point x="260" y="460"/>
      <point x="260" y="475" type="curve" smooth="yes"/>
      <point x="260" y="540"/>
      <point x="296" y="579"/>
      <point x="362" y="579" type="curve" smooth="yes"/>
      <point x="421" y="579"/>
      <point x="457" y="547"/>
      <point x="481" y="482" type="curve"/>
      <point x="619" y="526" type="line"/>
      <point x="580" y="649"/>
      <point x="491" y="711"/>
      <point x="354" y="711" type="curve" smooth="yes"/>
      <point x="205" y="711"/>
      <point x="110" y="613"/>
      <point x="110" y="473" type="curve" smooth="yes"/>
      <point x="110" y="449"/>
      <point x="113" y="425"/>
      <point x="123" y="377" type="curve"/>
      <point x="50" y="377" type="line"/>
      <point x="50" y="275" type="line"/>
      <point x="144" y="275" type="line"/>
      <point x="159" y="202"/>
      <point x="160" y="197"/>
      <point x="160" y="192" type="curve" smooth="yes"/>
      <point x="160" y="178"/>
      <point x="156" y="168"/>
      <point x="148" y="159" type="curve"/>
      <point x="88" y="148"/>
      <point x="40" y="110"/>
      <point x="3" y="41" type="curve"/>
      <point x="126" y="-35" type="line"/>
      <point x="148" y="10"/>
      <point x="174" y="31"/>
      <point x="210" y="31" type="curve" smooth="yes"/>
      <point x="221" y="31"/>
      <point x="233" y="29"/>
      <point x="247" y="25" type="curve" smooth="yes"/>
      <point x="392" y="-18" type="line" smooth="yes"/>
      <point x="421" y="-27"/>
      <point x="449" y="-31"/>
    </contour>
  </outline>
</glyph>
<glyph name="section" format="2">
  <advance width="585"/>
  <unicode hex="00A7"/>
  <outline>
    <contour>
      <point x="280" y="-55" type="curve" smooth="yes"/>
      <point x="401" y="-55"/>
      <point x="480" y="9"/>
      <point x="480" y="106" type="curve" smooth="yes"/>
      <point x="480" y="139"/>
      <point x="472" y="165"/>
      <point x="455" y="187" type="curve"/>
      <point x="510" y="214"/>
      <point x="542" y="261"/>
      <point x="542" y="323" type="curve" smooth="yes"/>
      <point x="542" y="400"/>
      <point x="504" y="439"/>
      <point x="392" y="478" type="curve" smooth="yes"/>
      <point x="295" y="513" type="line" smooth="yes"/>
      <point x="258" y="526"/>
      <point x="244" y="539"/>
      <point x="244" y="561" type="curve" smooth="yes"/>
      <point x="244" y="590"/>
      <point x="266" y="607"/>
      <point x="304" y="607" type="curve" smooth="yes"/>
      <point x="346" y="607"/>
      <point x="392" y="591"/>
      <point x="446" y="557" type="curve"/>
      <point x="506" y="651" type="line"/>
      <point x="445" y="689"/>
      <point x="375" y="710"/>
      <point x="307" y="710" type="curve" smooth="yes"/>
      <point x="185" y="710"/>
      <point x="105" y="645"/>
      <point x="105" y="547" type="curve" smooth="yes"/>
      <point x="105" y="514"/>
      <point x="113" y="487"/>
      <point x="132" y="465" type="curve"/>
      <point x="76" y="440"/>
      <point x="43" y="392"/>
      <point x="43" y="331" type="curve" smooth="yes"/>
      <point x="43" y="254"/>
      <point x="82" y="214"/>
      <point x="193" y="176" type="curve" smooth="yes"/>
      <point x="291" y="141" type="line" smooth="yes"/>
      <point x="329" y="127"/>
      <point x="342" y="114"/>
      <point x="342" y="93" type="curve" smooth="yes"/>
      <point x="342" y="65"/>
      <point x="319" y="47"/>
      <point x="282" y="47" type="curve" smooth="yes"/>
      <point x="240" y="46"/>
      <point x="195" y="62"/>
      <point x="139" y="97" type="curve"/>
      <point x="80" y="3" type="line"/>
      <point x="138" y="-35"/>
      <point x="207" y="-55"/>
    </contour>
    <contour>
      <point x="361" y="247" type="curve"/>
      <point x="354" y="249"/>
      <point x="348" y="252"/>
      <point x="341" y="254" type="curve" smooth="yes"/>
      <point x="227" y="292" type="line" smooth="yes"/>
      <point x="186" y="307"/>
      <point x="170" y="323"/>
      <point x="170" y="350" type="curve" smooth="yes"/>
      <point x="170" y="380"/>
      <point x="191" y="400"/>
      <point x="225" y="407" type="curve"/>
      <point x="231" y="405"/>
      <point x="237" y="402"/>
      <point x="244" y="400" type="curve" smooth="yes"/>
      <point x="358" y="362" type="line" smooth="yes"/>
      <point x="398" y="348"/>
      <point x="415" y="330"/>
      <point x="415" y="303" type="curve" smooth="yes"/>
      <point x="415" y="274"/>
      <point x="394" y="253"/>
    </contour>
  </outline>
</glyph>
<glyph name="copyright" format="2">
  <advance width="813"/>
  <unicode hex="00A9"/>
  <outline>
    <contour>
      <point x="412" y="159" type="curve" smooth="yes"/>
      <point x="472" y="159"/>
      <point x="529" y="185"/>
      <point x="569" y="230" type="curve"/>
      <point x="491" y="310" type="line"/>
      <point x="469" y="284"/>
      <point x="447" y="271"/>
      <point x="418" y="271" type="curve" smooth="yes"/>
      <point x="375" y="271"/>
      <point x="342" y="305"/>
      <point x="342" y="351" type="curve" smooth="yes"/>
      <point x="342" y="399"/>
      <point x="374" y="433"/>
      <point x="416" y="433" type="curve" smooth="yes"/>
      <point x="447" y="433"/>
      <point x="467" y="422"/>
      <point x="493" y="392" type="curve"/>
      <point x="572" y="473" type="line"/>
      <point x="534" y="518"/>
      <point x="474" y="544"/>
      <point x="412" y="544" type="curve" smooth="yes"/>
      <point x="300" y="544"/>
      <point x="213" y="461"/>
      <point x="213" y="351" type="curve" smooth="yes"/>
      <point x="213" y="243"/>
      <point x="300" y="159"/>
    </contour>
    <contour>
      <point x="406" y="-11" type="curve" smooth="yes"/>
      <point x="607" y="-11"/>
      <point x="764" y="148"/>
      <point x="764" y="350" type="curve" smooth="yes"/>
      <point x="764" y="552"/>
      <point x="607" y="711"/>
      <point x="406" y="711" type="curve" smooth="yes"/>
      <point x="206" y="711"/>
      <point x="48" y="552"/>
      <point x="48" y="350" type="curve" smooth="yes"/>
      <point x="48" y="148"/>
      <point x="206" y="-11"/>
    </contour>
    <contour>
      <point x="406" y="64" type="curve" smooth="yes"/>
      <point x="252" y="64"/>
      <point x="128" y="192"/>
      <point x="128" y="350" type="curve" smooth="yes"/>
      <point x="128" y="508"/>
      <point x="252" y="636"/>
      <point x="406" y="636" type="curve" smooth="yes"/>
      <point x="561" y="636"/>
      <point x="685" y="508"/>
      <point x="685" y="350" type="curve" smooth="yes"/>
      <point x="685" y="192"/>
      <point x="561" y="64"/>
    </contour>
  </outline>
</glyph>
<glyph name="uni00AC" format="2">
  <advance width="598"/>
  <unicode hex="00AC"/>
  <outline>
    <contour>
      <point x="418" y="0" type="line"/>
      <point x="542" y="0" type="line"/>
      <point x="542" y="354" type="line"/>
      <point x="56" y="354" type="line"/>
      <point x="56" y="234" type="line"/>
      <point x="418" y="234" type="line"/>
    </contour>
  </outline>
</glyph>
<glyph name="threesuperior" format="2">
  <advance width="335"/>
  <unicode hex="00B3"/>
  <outline>
    <contour>
      <point x="164" y="345" type="curve"/>
      <point x="250" y="345"/>
      <point x="311" y="389"/>
      <point x="311" y="450" type="curve"/>
      <point x="311" y="487"/>
      <point x="284" y="515"/>
      <point x="241" y="526" type="curve"/>
      <point x="279" y="538"/>
      <point x="304" y="567"/>
      <point x="304" y="603" type="curve"/>
      <point x="304" y="664"/>
      <point x="248" y="706"/>
      <point x="167" y="706" type="curve"/>
      <point x="115" y="706"/>
      <point x="59" y="683"/>
      <point x="25" y="648" type="curve"/>
      <point x="84" y="587" type="line"/>
      <point x="114" y="614"/>
      <point x="135" y="623"/>
      <point x="163" y="623" type="curve"/>
      <point x="191" y="623"/>
      <point x="209" y="609"/>
      <point x="209" y="589" type="curve"/>
      <point x="209" y="569"/>
      <point x="194" y="558"/>
      <point x="166" y="558" type="curve"/>
      <point x="135" y="558" type="line"/>
      <point x="135" y="484" type="line"/>
      <point x="177" y="484" type="line"/>
      <point x="202" y="484"/>
      <point x="216" y="474"/>
      <point x="216" y="457" type="curve"/>
      <point x="216" y="438"/>
      <point x="195" y="426"/>
      <point x="163" y="426" type="curve"/>
      <point x="130" y="426"/>
      <point x="107" y="436"/>
      <point x="78" y="461" type="curve"/>
      <point x="22" y="397" type="line"/>
      <point x="57" y="364"/>
      <point x="108" y="345"/>
    </contour>
  </outline>
</glyph>
<glyph name="acute" format="2">
  <advance width="600"/>
  <unicode hex="00B4"/>
  <outline>
    <contour>
      <point x="198" y="601" type="line"/>
      <point x="337" y="601" type="line"/>
      <point x="529" y="747" type="line"/>
      <point x="336" y="747" type="line"/>
    </contour>
  </outline>
</glyph>
<glyph name="cedilla" format="2">
  <advance width="600"/>
  <unicode hex="00B8"/>
  <outline>
    <contour>
      <point x="319" y="-254" type="curve" smooth="yes"/>
      <point x="394" y="-254"/>
      <point x="451" y="-206"/>
      <point x="451" y="-144" type="curve" smooth="yes"/>
      <point x="451" y="-95"/>
      <point x="412" y="-63"/>
      <point x="349" y="-58" type="curve"/>
      <point x="363" y="0" type="line"/>
      <point x="290" y="0" type="line"/>
      <point x="263" y="-111" type="line"/>
      <point x="308" y="-111" type="line" smooth="yes"/>
      <point x="343" y="-111"/>
      <point x="364" y="-124"/>
      <point x="364" y="-146" type="curve" smooth="yes"/>
      <point x="364" y="-170"/>
      <point x="345" y="-183"/>
      <point x="310" y="-183" type="curve" smooth="yes"/>
      <point x="284" y="-183"/>
      <point x="256" y="-173"/>
      <point x="233" y="-155" type="curve"/>
      <point x="184" y="-212" type="line"/>
      <point x="216" y="-240"/>
      <point x="260" y="-254"/>
    </contour>
  </outline>
</glyph>
<glyph name="germandbls" format="2">
  <advance width="668"/>
  <unicode hex="00DF"/>
  <outline>
    <contour>
      <point x="446" y="-11" type="curve" smooth="yes"/>
      <point x="575" y="-11"/>
      <point x="656" y="56"/>
      <point x="656" y="163" type="curve" smooth="yes"/>
      <point x="656" y="232"/>
      <point x="619" y="275"/>
      <point x="529" y="314" type="curve" smooth="yes"/>
      <point x="466" y="341" type="line" smooth="yes"/>
      <point x="441" y="352"/>
      <point x="433" y="360"/>
      <point x="433" y="376" type="curve" smooth="yes"/>
      <point x="433" y="419"/>
      <point x="548" y="432"/>
      <point x="548" y="559" type="curve" smooth="yes"/>
      <point x="548" y="664"/>
      <point x="446" y="737"/>
      <point x="300" y="737" type="curve" smooth="yes"/>
      <point x="135" y="737"/>
      <point x="26" y="638"/>
      <point x="26" y="489" type="curve" smooth="yes"/>
      <point x="26" y="0" type="line"/>
      <point x="187" y="0" type="line"/>
      <point x="187" y="498" type="line" smooth="yes"/>
      <point x="187" y="561"/>
      <point x="238" y="608"/>
      <point x="306" y="608" type="curve" smooth="yes"/>
      <point x="362" y="608"/>
      <point x="402" y="580"/>
      <point x="402" y="541" type="curve" smooth="yes"/>
      <point x="402" y="471"/>
      <point x="280" y="471"/>
      <point x="280" y="352" type="curve" smooth="yes"/>
      <point x="280" y="298"/>
      <point x="310" y="263"/>
      <point x="379" y="237" type="curve" smooth="yes"/>
      <point x="451" y="210" type="line" smooth="yes"/>
      <point x="496" y="193"/>
      <point x="509" y="181"/>
      <point x="509" y="155" type="curve" smooth="yes"/>
      <point x="509" y="123"/>
      <point x="482" y="103"/>
      <point x="440" y="103" type="curve" smooth="yes"/>
      <point x="405" y="103"/>
      <point x="364" y="120"/>
      <point x="320" y="154" type="curve"/>
      <point x="252" y="54" type="line"/>
      <point x="308" y="9"/>
      <point x="368" y="-11"/>
    </contour>
  </outline>
</glyph>
<glyph name="ae" format="2">
  <advance width="912"/>
  <unicode hex="00E6"/>
  <outline>
    <contour>
      <point x="223" y="-8" type="curve" smooth="yes"/>
      <point x="308" y="-8"/>
      <point x="369" y="17"/>
      <point x="430" y="76" type="curve"/>
      <point x="480" y="23"/>
      <point x="551" y="-10"/>
      <point x="632" y="-10" type="curve" smooth="yes"/>
      <point x="719" y="-10"/>
      <point x="782" y="14"/>
      <point x="849" y="73" type="curve"/>
      <point x="742" y="162" type="line"/>
      <point x="719" y="134"/>
      <point x="683" y="119"/>
      <point x="640" y="119" type="curve" smooth="yes"/>
      <point x="581" y="119"/>
      <point x="534" y="158"/>
      <point x="519" y="216" type="curve"/>
      <point x="874" y="216" type="line"/>
      <point x="874" y="251" type="line" smooth="yes"/>
      <point x="874" y="411"/>
      <point x="769" y="524"/>
      <point x="620" y="524" type="curve" smooth="yes"/>
      <point x="556" y="524"/>
      <point x="499" y="502"/>
      <point x="455" y="464" type="curve"/>
      <point x="420" y="503"/>
      <point x="365" y="524"/>
      <point x="294" y="524" type="curve" smooth="yes"/>
      <point x="218" y="524"/>
      <point x="142" y="506"/>
      <point x="57" y="468" type="curve"/>
      <point x="113" y="355" type="line"/>
      <point x="173" y="380"/>
      <point x="219" y="391"/>
      <point x="258" y="391" type="curve" smooth="yes"/>
      <point x="327" y="391"/>
      <point x="360" y="366"/>
      <point x="360" y="316" type="curve" smooth="yes"/>
      <point x="360" y="275" type="line"/>
      <point x="315" y="291"/>
      <point x="277" y="298"/>
      <point x="240" y="298" type="curve" smooth="yes"/>
      <point x="114" y="298"/>
      <point x="41" y="244"/>
      <point x="41" y="151" type="curve" smooth="yes"/>
      <point x="41" y="57"/>
      <point x="115" y="-8"/>
    </contour>
    <contour>
      <point x="519" y="308" type="line"/>
      <point x="532" y="365"/>
      <point x="568" y="398"/>
      <point x="619" y="398" type="curve" smooth="yes"/>
      <point x="671" y="398"/>
      <point x="710" y="363"/>
      <point x="724" y="308" type="curve"/>
    </contour>
    <contour>
      <point x="266" y="101" type="curve" smooth="yes"/>
      <point x="217" y="101"/>
      <point x="188" y="120"/>
      <point x="188" y="154" type="curve" smooth="yes"/>
      <point x="188" y="187"/>
      <point x="217" y="205"/>
      <point x="271" y="205" type="curve" smooth="yes"/>
      <point x="303" y="205"/>
      <point x="336" y="201"/>
      <point x="368" y="191" type="curve"/>
      <point x="372" y="176"/>
      <point x="377" y="162"/>
      <point x="383" y="148" type="curve"/>
      <point x="353" y="119"/>
      <point x="310" y="101"/>
    </contour>
  </outline>
</glyph>
<glyph name="ccedilla" format="2">
  <advance width="539"/>
  <unicode hex="00E7"/>
  <outline>
    <contour>
      <point x="299" y="-254" type="curve" smooth="yes"/>
      <point x="374" y="-254"/>
      <point x="431" y="-206"/>
      <point x="431" y="-144" type="curve" smooth="yes"/>
      <point x="431" y="-95"/>
      <point x="392" y="-63"/>
      <point x="329" y="-58" type="curve"/>
      <point x="341" y="-8" type="line"/>
      <point x="413" y="0"/>
      <point x="477" y="32"/>
      <point x="522" y="85" type="curve"/>
      <point x="423" y="184" type="line"/>
      <point x="390" y="145"/>
      <point x="357" y="128"/>
      <point x="313" y="128" type="curve" smooth="yes"/>
      <point x="249" y="128"/>
      <point x="201" y="183"/>
      <point x="201" y="257" type="curve" smooth="yes"/>
      <point x="201" y="331"/>
      <point x="249" y="386"/>
      <point x="313" y="386" type="curve" smooth="yes"/>
      <point x="357" y="386"/>
      <point x="390" y="369"/>
      <point x="423" y="330" type="curve"/>
      <point x="522" y="429" type="line"/>
      <point x="470" y="490"/>
      <point x="392" y="524"/>
      <point x="307" y="524" type="curve" smooth="yes"/>
      <point x="156" y="524"/>
      <point x="40" y="408"/>
      <point x="40" y="257" type="curve" smooth="yes"/>
      <point x="40" y="119"/>
      <point x="137" y="11"/>
      <point x="268" y="-7" type="curve"/>
      <point x="243" y="-111" type="line"/>
      <point x="288" y="-111" type="line" smooth="yes"/>
      <point x="323" y="-111"/>
      <point x="344" y="-124"/>
      <point x="344" y="-146" type="curve" smooth="yes"/>
      <point x="344" y="-170"/>
      <point x="325" y="-183"/>
      <point x="290" y="-183" type="curve" smooth="yes"/>
      <point x="264" y="-183"/>
      <point x="236" y="-173"/>
      <point x="213" y="-155" type="curve"/>
      <point x="164" y="-212" type="line"/>
      <point x="196" y="-240"/>
      <point x="240" y="-254"/>
    </contour>
  </outline>
</glyph>
<glyph name="eth" format="2">
  <advance width="596"/>
  <unicode hex="00F0"/>
  <outline>
    <contour>
      <point x="289" y="-10" type="curve" smooth="yes"/>
      <point x="454" y="-10"/>
      <point x="556" y="116"/>
      <point x="556" y="309" type="curve" smooth="yes"/>
      <point x="556" y="429"/>
      <point x="516" y="537"/>
      <point x="444" y="624" type="curve"/>
      <point x="513" y="671" type="line"/>
      <point x="460" y="747" type="line"/>
      <point x="377" y="691" type="line"/>
      <point x="341" y="721"/>
      <point x="300" y="747"/>
      <point x="255" y="770" type="curve"/>
      <point x="173" y="664" type="line"/>
      <point x="205" y="649"/>
      <point x="234" y="631"/>
      <point x="261" y="611" type="curve"/>
      <point x="197" y="568" type="line"/>
      <point x="250" y="492" type="line"/>
      <point x="330" y="547" type="line"/>
      <point x="369" y="501"/>
      <point x="394" y="450"/>
      <point x="402" y="399" type="curve"/>
      <point x="377" y="437"/>
      <point x="320" y="462"/>
      <point x="257" y="462" type="curve" smooth="yes"/>
      <point x="137" y="462"/>
      <point x="40" y="361"/>
      <point x="40" y="235" type="curve" smooth="yes"/>
      <point x="40" y="97"/>
      <point x="148" y="-10"/>
    </contour>
    <contour>
      <point x="295" y="128" type="curve" smooth="yes"/>
      <point x="237" y="128"/>
      <point x="190" y="176"/>
      <point x="190" y="235" type="curve" smooth="yes"/>
      <point x="190" y="294"/>
      <point x="237" y="342"/>
      <point x="295" y="342" type="curve" smooth="yes"/>
      <point x="353" y="342"/>
      <point x="400" y="294"/>
      <point x="400" y="235" type="curve" smooth="yes"/>
      <point x="400" y="176"/>
      <point x="353" y="128"/>
    </contour>
  </outline>
</glyph>
<glyph name="oslash" format="2">
  <advance width="618"/>
  <unicode hex="00F8"/>
  <outline>
    <contour>
      <point x="309" y="-10" type="curve" smooth="yes"/>
      <point x="462" y="-10"/>
      <point x="578" y="105"/>
      <point x="578" y="257" type="curve" smooth="yes"/>
      <point x="578" y="327"/>
      <point x="553" y="389"/>
      <point x="512" y="436" type="curve"/>
      <point x="581" y="516" type="line"/>
      <point x="479" y="516" type="line"/>
      <point x="453" y="485" type="line"/>
      <point x="411" y="510"/>
      <point x="363" y="524"/>
      <point x="309" y="524" type="curve" smooth="yes"/>
      <point x="156" y="524"/>
      <point x="40" y="409"/>
      <point x="40" y="257" type="curve" smooth="yes"/>
      <point x="40" y="188"/>
      <point x="64" y="126"/>
      <point x="105" y="79" type="curve"/>
      <point x="37" y="0" type="line"/>
      <point x="139" y="0" type="line"/>
      <point x="164" y="30" type="line"/>
      <point x="206" y="4"/>
      <point x="255" y="-10"/>
    </contour>
    <contour>
      <point x="208" y="199" type="line"/>
      <point x="201" y="216"/>
      <point x="198" y="236"/>
      <point x="198" y="257" type="curve" smooth="yes"/>
      <point x="198" y="334"/>
      <point x="244" y="389"/>
      <point x="309" y="389" type="curve" smooth="yes"/>
      <point x="328" y="389"/>
      <point x="345" y="385"/>
      <point x="359" y="376" type="curve"/>
    </contour>
    <contour>
      <point x="309" y="125" type="curve" smooth="yes"/>
      <point x="290" y="125"/>
      <point x="273" y="130"/>
      <point x="257" y="138" type="curve"/>
      <point x="410" y="316" type="line"/>
      <point x="416" y="299"/>
      <point x="420" y="279"/>
      <point x="420" y="257" type="curve" smooth="yes"/>
      <point x="420" y="180"/>
      <point x="374" y="125"/>
    </contour>
  </outline>
</glyph>
<glyph name="thorn" format="2">
  <advance width="642"/>
  <unicode hex="00FE"/>
  <outline>
    <contour>
      <point x="63" y="-209" type="line"/>
      <point x="225" y="-209" type="line"/>
      <point x="225" y="57" type="line"/>
      <point x="259" y="18"/>
      <point x="308" y="-3"/>
      <point x="364" y="-3" type="curve" smooth="yes"/>
      <point x="498" y="-3"/>
      <point x="604" y="112"/>
      <point x="604" y="257" type="curve" smooth="yes"/>
      <point x="604" y="402"/>
      <point x="503" y="519"/>
      <point x="376" y="519" type="curve" smooth="yes"/>
      <point x="315" y="519"/>
      <point x="259" y="491"/>
      <point x="225" y="447" type="curve"/>
      <point x="225" y="737" type="line"/>
      <point x="63" y="712" type="line"/>
    </contour>
    <contour>
      <point x="322" y="385" type="curve" smooth="yes"/>
      <point x="392" y="385"/>
      <point x="445" y="331"/>
      <point x="445" y="258" type="curve" smooth="yes"/>
      <point x="445" y="184"/>
      <point x="393" y="130"/>
      <point x="322" y="130" type="curve" smooth="yes"/>
      <point x="284" y="130"/>
      <point x="250" y="145"/>
      <point x="225" y="171" type="curve"/>
      <point x="225" y="343" type="line"/>
      <point x="251" y="371"/>
      <point x="282" y="385"/>
    </contour>
  </outline>
</glyph>
<glyph name="aogonek" format="2">
  <advance width="579"/>
  <unicode hex="0105"/>
  <outline>
    <contour>
      <point x="456" y="-231" type="curve" smooth="yes"/>
      <point x="492" y="-231"/>
      <point x="527" y="-222"/>
      <point x="549" y="-208" type="curve"/>
      <point x="529" y="-138" type="line"/>
      <point x="519" y="-145"/>
      <point x="502" y="-149"/>
      <point x="484" y="-149" type="curve" smooth="yes"/>
      <point x="454" y="-149"/>
      <point x="435" y="-132"/>
      <point x="435" y="-103" type="curve" smooth="yes"/>
      <point x="435" y="-67"/>
      <point x="462" y="-35"/>
      <point x="520" y="0" type="curve"/>
      <point x="520" y="330" type="line" smooth="yes"/>
      <point x="520" y="453"/>
      <point x="437" y="524"/>
      <point x="294" y="524" type="curve" smooth="yes"/>
      <point x="218" y="524"/>
      <point x="142" y="506"/>
      <point x="57" y="468" type="curve"/>
      <point x="113" y="355" type="line"/>
      <point x="173" y="380"/>
      <point x="219" y="391"/>
      <point x="258" y="391" type="curve" smooth="yes"/>
      <point x="327" y="391"/>
      <point x="360" y="366"/>
      <point x="360" y="316" type="curve" smooth="yes"/>
      <point x="360" y="274" type="line"/>
      <point x="314" y="291"/>
      <point x="277" y="298"/>
      <point x="240" y="298" type="curve" smooth="yes"/>
      <point x="113" y="298"/>
      <point x="39" y="243"/>
      <point x="39" y="148" type="curve" smooth="yes"/>
      <point x="39" y="56"/>
      <point x="112" y="-8"/>
      <point x="217" y="-8" type="curve" smooth="yes"/>
      <point x="272" y="-8"/>
      <point x="315" y="7"/>
      <point x="360" y="45" type="curve"/>
      <point x="360" y="0" type="line"/>
      <point x="436" y="0" type="line"/>
      <point x="375" y="-41"/>
      <point x="348" y="-82"/>
      <point x="348" y="-132" type="curve" smooth="yes"/>
      <point x="348" y="-191"/>
      <point x="391" y="-231"/>
    </contour>
    <contour>
      <point x="267" y="99" type="curve" smooth="yes"/>
      <point x="217" y="99"/>
      <point x="188" y="118"/>
      <point x="188" y="151" type="curve" smooth="yes"/>
      <point x="188" y="184"/>
      <point x="218" y="202"/>
      <point x="271" y="202" type="curve" smooth="yes"/>
      <point x="301" y="202"/>
      <point x="330" y="198"/>
      <point x="360" y="191" type="curve"/>
      <point x="360" y="125" type="line"/>
      <point x="332" y="108"/>
      <point x="301" y="99"/>
    </contour>
  </outline>
</glyph>
<glyph name="Dcroat" format="2">
  <advance width="785"/>
  <unicode hex="0110"/>
  <outline>
    <contour>
      <point x="103" y="0" type="line"/>
      <point x="388" y="0" type="line" smooth="yes"/>
      <point x="584" y="0"/>
      <point x="740" y="156"/>
      <point x="740" y="350" type="curve" smooth="yes"/>
      <point x="740" y="544"/>
      <point x="584" y="700"/>
      <point x="388" y="700" type="curve" smooth="yes"/>
      <point x="103" y="700" type="line"/>
      <point x="103" y="413" type="line"/>
      <point x="23" y="413" type="line"/>
      <point x="23" y="293" type="line"/>
      <point x="103" y="293" type="line"/>
    </contour>
    <contour>
      <point x="275" y="147" type="line"/>
      <point x="275" y="293" type="line"/>
      <point x="416" y="293" type="line"/>
      <point x="416" y="413" type="line"/>
      <point x="275" y="413" type="line"/>
      <point x="275" y="553" type="line"/>
      <point x="388" y="553" type="line" smooth="yes"/>
      <point x="485" y="553"/>
      <point x="562" y="463"/>
      <point x="562" y="350" type="curve" smooth="yes"/>
      <point x="562" y="237"/>
      <point x="485" y="147"/>
      <point x="388" y="147" type="curve" smooth="yes"/>
    </contour>
  </outline>
</glyph>
<glyph name="hbar" format="2">
  <advance width="628"/>
  <unicode hex="0127"/>
  <outline>
    <contour>
      <point x="73" y="0" type="line"/>
      <point x="235" y="0" type="line"/>
      <point x="235" y="354" type="line"/>
      <point x="258" y="383"/>
      <point x="286" y="397"/>
      <point x="321" y="397" type="curve" smooth="yes"/>
      <point x="373" y="397"/>
      <point x="407" y="359"/>
      <point x="407" y="301" type="curve" smooth="yes"/>
      <point x="407" y="0" type="line"/>
      <point x="569" y="0" type="line"/>
      <point x="569" y="348" type="line" smooth="yes"/>
      <point x="569" y="451"/>
      <point x="498" y="524"/>
      <point x="398" y="524" type="curve" smooth="yes"/>
      <point x="331" y="524"/>
      <point x="275" y="492"/>
      <point x="235" y="432" type="curve"/>
      <point x="235" y="560" type="line"/>
      <point x="338" y="560" type="line"/>
      <point x="338" y="648" type="line"/>
      <point x="235" y="648" type="line"/>
      <point x="235" y="737" type="line"/>
      <point x="73" y="712" type="line"/>
      <point x="73" y="648" type="line"/>
      <point x="14" y="648" type="line"/>
      <point x="14" y="560" type="line"/>
      <point x="73" y="560" type="line"/>
    </contour>
  </outline>
</glyph>
<glyph name="kgreenlandic" format="2">
  <advance width="604"/>
  <unicode hex="0138"/>
  <outline>
    <contour>
      <point x="63" y="0" type="line"/>
      <point x="225" y="0" type="line"/>
      <point x="225" y="228" type="line"/>
      <point x="397" y="0" type="line"/>
      <point x="599" y="0" type="line"/>
      <point x="374" y="285" type="line"/>
      <point x="584" y="516" type="line"/>
      <point x="405" y="516" type="line"/>
      <point x="225" y="311" type="line"/>
      <point x="225" y="516" type="line"/>
      <point x="63" y="516" type="line"/>
    </contour>
  </outline>
</glyph>
<glyph name="lacute" format="2">
  <advance width="288"/>
  <unicode hex="013A"/>
  <outline>
    <contour>
      <point x="63" y="0" type="line"/>
      <point x="225" y="0" type="line"/>
      <point x="225" y="727" type="line"/>
      <point x="63" y="727" type="line"/>
    </contour>
    <contour>
      <point x="53" y="780" type="line"/>
      <point x="192" y="780" type="line"/>
      <point x="384" y="926" type="line"/>
      <point x="191" y="926" type="line"/>
    </contour>
  </outline>
</glyph>
<glyph name="Eng" format="2">
  <advance width="788"/>
  <unicode hex="014A"/>
  <outline>
    <contour>
      <point x="535" y="-219" type="curve" smooth="yes"/>
      <point x="647" y="-219"/>
      <point x="710" y="-159"/>
      <point x="710" y="-53" type="curve" smooth="yes"/>
      <point x="710" y="700" type="line"/>
      <point x="548" y="700" type="line"/>
      <point x="548" y="286" type="line"/>
      <point x="240" y="700" type="line"/>
      <point x="78" y="700" type="line"/>
      <point x="78" y="0" type="line"/>
      <point x="240" y="0" type="line"/>
      <point x="240" y="428" type="line"/>
      <point x="556" y="3" type="line"/>
      <point x="556" y="-43" type="line" smooth="yes"/>
      <point x="556" y="-76"/>
      <point x="539" y="-91"/>
      <point x="503" y="-91" type="curve" smooth="yes"/>
      <point x="485" y="-91"/>
      <point x="472" y="-90"/>
      <point x="457" y="-87" type="curve"/>
      <point x="457" y="-209" type="line"/>
      <point x="475" y="-215"/>
      <point x="510" y="-219"/>
    </contour>
  </outline>
</glyph>
<glyph name="ogonek" format="2">
  <advance width="600"/>
  <unicode hex="02DB"/>
  <outline>
    <contour>
      <point x="305" y="-231" type="curve" smooth="yes"/>
      <point x="341" y="-231"/>
      <point x="376" y="-222"/>
      <point x="398" y="-208" type="curve"/>
      <point x="378" y="-138" type="line"/>
      <point x="368" y="-145"/>
      <point x="351" y="-149"/>
      <point x="333" y="-149" type="curve" smooth="yes"/>
      <point x="303" y="-149"/>
      <point x="284" y="-132"/>
      <point x="284" y="-103" type="curve" smooth="yes"/>
      <point x="284" y="-67"/>
      <point x="311" y="-35"/>
      <point x="369" y="0" type="curve"/>
      <point x="322" y="22" type="line"/>
      <point x="235" y="-26"/>
      <point x="197" y="-73"/>
      <point x="197" y="-132" type="curve" smooth="yes"/>
      <point x="197" y="-191"/>
      <point x="240" y="-231"/>
    </contour>
  </outline>
</glyph>
<glyph name="hungarumlaut" format="2">
  <advance width="600"/>
  <unicode hex="02DD"/>
  <outline>
    <contour>
      <point x="105" y="603" type="line"/>
      <point x="226" y="603" type="line"/>
      <point x="384" y="746" type="line"/>
      <point x="240" y="746" type="line"/>
    </contour>
    <contour>
      <point x="332" y="603" type="line"/>
      <point x="444" y="603" type="line"/>
      <point x="613" y="746" type="line"/>
      <point x="467" y="746" type="line"/>
    </contour>
  </outline>
</glyph>
<glyph name="endash" format="2">
  <advance width="565"/>
  <unicode hex="2013"/>
  <outline>
    <contour>
      <point x="51" y="219" type="line"/>
      <point x="514" y="219" type="line"/>
      <point x="514" y="354" type="line"/>
      <point x="51" y="354" type="line"/>
    </contour>
  </outline>
</glyph>
<glyph name="emdash" format="2">
  <advance width="707"/>
  <unicode hex="2014"/>
  <outline>
    <contour>
      <point x="51" y="219" type="line"/>
      <point x="656" y="219" type="line"/>
      <point x="656" y="354" type="line"/>
      <point x="51" y="354" type="line"/>
    </contour>
  </outline>
</glyph>
<glyph name="bullet" format="2">
  <advance width="378"/>
  <unicode hex="2022"/>
  <outline>
    <contour>
      <point x="189" y="201" type="curve" smooth="yes"/>
      <point x="255" y="201"/>
      <point x="307" y="254"/>
      <point x="307" y="323" type="curve" smooth="yes"/>
      <point x="307" y="392"/>
      <point x="255" y="445"/>
      <point x="189" y="445" type="curve" smooth="yes"/>
      <point x="123" y="445"/>
      <point x="71" y="392"/>
      <point x="71" y="323" type="curve" smooth="yes"/>
      <point x="71" y="254"/>
      <point x="123" y="201"/>
    </contour>
  </outline>
</glyph>
<glyph name="guilsinglleft" format="2">
  <advance width="456"/>
  <unicode hex="2039"/>
  <outline>
    <contour>
      <point x="262" y="0" type="line"/>
      <point x="421" y="0" type="line"/>
      <point x="191" y="260" type="line"/>
      <point x="418" y="516" type="line"/>
      <point x="262" y="516" type="line"/>
      <point x="28" y="259" type="line"/>
    </contour>
  </outline>
</glyph>
<glyph name="uni2074" format="2">
  <advance width="367"/>
  <unicode hex="2074"/>
  <outline>
    <contour>
      <point x="214" y="350" type="line"/>
      <point x="308" y="350" type="line"/>
      <point x="308" y="423" type="line"/>
      <point x="350" y="423" type="line"/>
      <point x="350" y="497" type="line"/>
      <point x="308" y="497" type="line"/>
      <point x="308" y="700" type="line"/>
      <point x="198" y="700" type="line"/>
      <point x="28" y="500" type="line"/>
      <point x="28" y="423" type="line"/>
      <point x="214" y="423" type="line"/>
    </contour>
    <contour>
      <point x="122" y="497" type="line"/>
      <point x="214" y="606" type="line"/>
      <point x="214" y="497" type="line"/>
    </contour>
  </outline>
</glyph>
<glyph name="uni2076" format="2">
  <advance width="343"/>
  <unicode hex="2076"/>
  <outline>
    <contour>
      <point x="186" y="344" type="curve" smooth="yes"/>
      <point x="263" y="344"/>
      <point x="320" y="394"/>
      <point x="320" y="461" type="curve" smooth="yes"/>
      <point x="320" y="522"/>
      <point x="274" y="563"/>
      <point x="205" y="563" type="curve" smooth="yes"/>
      <point x="170" y="563"/>
      <point x="139" y="548"/>
      <point x="118" y="522" type="curve"/>
      <point x="118" y="588"/>
      <point x="143" y="624"/>
      <point x="192" y="624" type="curve" smooth="yes"/>
      <point x="217" y="624"/>
      <point x="241" y="615"/>
      <point x="265" y="596" type="curve"/>
      <point x="313" y="667" type="line"/>
      <point x="280" y="693"/>
      <point x="240" y="707"/>
      <point x="199" y="707" type="curve" smooth="yes"/>
      <point x="95" y="707"/>
      <point x="25" y="633"/>
      <point x="25" y="523" type="curve" smooth="yes"/>
      <point x="25" y="415"/>
      <point x="89" y="344"/>
    </contour>
    <contour>
      <point x="184" y="494" type="curve" smooth="yes"/>
      <point x="211" y="494"/>
      <point x="229" y="480"/>
      <point x="229" y="459" type="curve" smooth="yes"/>
      <point x="229" y="439"/>
      <point x="209" y="424"/>
      <point x="183" y="424" type="curve" smooth="yes"/>
      <point x="157" y="424"/>
      <point x="136" y="442"/>
      <point x="125" y="471" type="curve"/>
      <point x="141" y="486"/>
      <point x="161" y="494"/>
    </contour>
  </outline>
</glyph>
<glyph name="uni2077" format="2">
  <advance width="329"/>
  <unicode hex="2077"/>
  <outline>
    <contour>
      <point x="67" y="350" type="line"/>
      <point x="180" y="350" type="line"/>
      <point x="310" y="631" type="line"/>
      <point x="310" y="700" type="line"/>
      <point x="26" y="700" type="line"/>
      <point x="26" y="618" type="line"/>
      <point x="206" y="618" type="line"/>
    </contour>
  </outline>
</glyph>
<glyph name="uni2078" format="2">
  <advance width="340"/>
  <unicode hex="2078"/>
  <outline>
    <contour>
      <point x="170" y="344" type="curve" smooth="yes"/>
      <point x="253" y="344"/>
      <point x="311" y="386"/>
      <point x="311" y="446" type="curve" smooth="yes"/>
      <point x="311" y="485"/>
      <point x="283" y="516"/>
      <point x="242" y="527" type="curve"/>
      <point x="278" y="540"/>
      <point x="302" y="569"/>
      <point x="302" y="605" type="curve" smooth="yes"/>
      <point x="302" y="661"/>
      <point x="243" y="706"/>
      <point x="169" y="706" type="curve" smooth="yes"/>
      <point x="95" y="706"/>
      <point x="37" y="662"/>
      <point x="37" y="605" type="curve" smooth="yes"/>
      <point x="37" y="569"/>
      <point x="61" y="540"/>
      <point x="97" y="527" type="curve"/>
      <point x="56" y="516"/>
      <point x="28" y="485"/>
      <point x="28" y="446" type="curve" smooth="yes"/>
      <point x="28" y="386"/>
      <point x="86" y="344"/>
    </contour>
    <contour>
      <point x="170" y="558" type="curve" smooth="yes"/>
      <point x="147" y="558"/>
      <point x="129" y="574"/>
      <point x="129" y="594" type="curve" smooth="yes"/>
      <point x="129" y="615"/>
      <point x="146" y="630"/>
      <point x="170" y="630" type="curve" smooth="yes"/>
      <point x="193" y="630"/>
      <point x="210" y="615"/>
      <point x="210" y="594" type="curve" smooth="yes"/>
      <point x="210" y="574"/>
      <point x="192" y="558"/>
    </contour>
    <contour>
      <point x="170" y="421" type="curve" smooth="yes"/>
      <point x="142" y="421"/>
      <point x="123" y="435"/>
      <point x="123" y="456" type="curve" smooth="yes"/>
      <point x="123" y="478"/>
      <point x="141" y="492"/>
      <point x="170" y="492" type="curve" smooth="yes"/>
      <point x="198" y="492"/>
      <point x="216" y="478"/>
      <point x="216" y="456" type="curve" smooth="yes"/>
      <point x="216" y="435"/>
      <point x="198" y="421"/>
    </contour>
  </outline>
</glyph>
<glyph name="uni2081" format="2">
  <advance width="213"/>
  <unicode hex="2081"/>
  <outline>
    <contour>
      <point x="95" y="0" type="line"/>
      <point x="190" y="0" type="line"/>
      <point x="190" y="350" type="line"/>
      <point x="131" y="350" type="line"/>
      <point x="22" y="305" type="line"/>
      <point x="22" y="224" type="line"/>
      <point x="95" y="253" type="line"/>
    </contour>
  </outline>
</glyph>
<glyph name="uni2086" format="2">
  <advance width="346"/>
  <unicode hex="2086"/>
  <outline>
    <contour>
      <point x="186" y="-6" type="curve" smooth="yes"/>
      <point x="263" y="-6"/>
      <point x="320" y="44"/>
      <point x="320" y="111" type="curve" smooth="yes"/>
      <point x="320" y="172"/>
      <point x="274" y="213"/>
      <point x="205" y="213" type="curve" smooth="yes"/>
      <point x="170" y="213"/>
      <point x="139" y="198"/>
      <point x="118" y="172" type="curve"/>
      <point x="118" y="238"/>
      <point x="143" y="274"/>
      <point x="192" y="274" type="curve" smooth="yes"/>
      <point x="217" y="274"/>
      <point x="241" y="265"/>
      <point x="265" y="246" type="curve"/>
      <point x="313" y="317" type="line"/>
      <point x="280" y="343"/>
      <point x="240" y="357"/>
      <point x="199" y="357" type="curve" smooth="yes"/>
      <point x="95" y="357"/>
      <point x="25" y="283"/>
      <point x="25" y="173" type="curve" smooth="yes"/>
      <point x="25" y="65"/>
      <point x="89" y="-6"/>
    </contour>
    <contour>
      <point x="184" y="144" type="curve" smooth="yes"/>
      <point x="211" y="144"/>
      <point x="229" y="130"/>
      <point x="229" y="109" type="curve" smooth="yes"/>
      <point x="229" y="89"/>
      <point x="209" y="74"/>
      <point x="183" y="74" type="curve" smooth="yes"/>
      <point x="157" y="74"/>
      <point x="136" y="92"/>
      <point x="125" y="121" type="curve"/>
      <point x="141" y="136"/>
      <point x="161" y="144"/>
    </contour>
  </outline>
</glyph>
<glyph name="uni2087" format="2">
  <advance width="329"/>
  <unicode hex="2087"/>
  <outline>
    <contour>
      <point x="67" y="0" type="line"/>
      <point x="180" y="0" type="line"/>
      <point x="310" y="281" type="line"/>
      <point x="310" y="350" type="line"/>
      <point x="26" y="350" type="line"/>
      <point x="26" y="268" type="line"/>
      <point x="206" y="268" type="line"/>
    </contour>
  </outline>
</glyph>
<glyph name="uni2088" format="2">
  <advance width="339"/>
  <unicode hex="2088"/>
  <outline>
    <contour>
      <point x="170" y="-6" type="curve" smooth="yes"/>
      <point x="253" y="-6"/>
      <point x="311" y="36"/>
      <point x="311" y="96" type="curve" smooth="yes"/>
      <point x="311" y="135"/>
      <point x="283" y="166"/>
      <point x="242" y="177" type="curve"/>
      <point x="278" y="190"/>
      <point x="302" y="219"/>
      <point x="302" y="255" type="curve" smooth="yes"/>
      <point x="302" y="311"/>
      <point x="243" y="356"/>
      <point x="169" y="356" type="curve" smooth="yes"/>
      <point x="95" y="356"/>
      <point x="37" y="312"/>
      <point x="37" y="255" type="curve" smooth="yes"/>
      <point x="37" y="219"/>
      <point x="61" y="190"/>
      <point x="97" y="177" type="curve"/>
      <point x="56" y="166"/>
      <point x="28" y="135"/>
      <point x="28" y="96" type="curve" smooth="yes"/>
      <point x="28" y="36"/>
      <point x="86" y="-6"/>
    </contour>
    <contour>
      <point x="170" y="208" type="curve" smooth="yes"/>
      <point x="147" y="208"/>
      <point x="129" y="224"/>
      <point x="129" y="244" type="curve" smooth="yes"/>
      <point x="129" y="265"/>
      <point x="146" y="280"/>
      <point x="170" y="280" type="curve" smooth="yes"/>
      <point x="193" y="280"/>
      <point x="210" y="265"/>
      <point x="210" y="244" type="curve" smooth="yes"/>
      <point x="210" y="224"/>
      <point x="192" y="208"/>
    </contour>
    <contour>
      <point x="170" y="71" type="curve" smooth="yes"/>
      <point x="142" y="71"/>
      <point x="123" y="85"/>
      <point x="123" y="106" type="curve" smooth="yes"/>
      <point x="123" y="128"/>
      <point x="141" y="142"/>
      <point x="170" y="142" type="curve" smooth="yes"/>
      <point x="198" y="142"/>
      <point x="216" y="128"/>
      <point x="216" y="106" type="curve" smooth="yes"/>
      <point x="216" y="85"/>
      <point x="198" y="71"/>
    </contour>
  </outline>
</glyph>
<glyph name="Euro" format="2">
  <advance width="748"/>
  <unicode hex="20AC"/>
  <outline>
    <contour>
      <point x="447" y="-11" type="curve" smooth="yes"/>
      <point x="556" y="-11"/>
      <point x="645" y="33"/>
      <point x="705" y="119" type="curve"/>
      <point x="602" y="201" type="line"/>
      <point x="569" y="151"/>
      <point x="510" y="120"/>
      <point x="448" y="120" type="curve" smooth="yes"/>
      <point x="367" y="120"/>
      <point x="305" y="167"/>
      <point x="277" y="245" type="curve"/>
      <point x="435" y="245" type="line"/>
      <point x="465" y="323" type="line"/>
      <point x="261" y="323" type="line"/>
      <point x="260" y="332"/>
      <point x="260" y="341"/>
      <point x="260" y="350" type="curve" smooth="yes"/>
      <point x="260" y="359"/>
      <point x="260" y="368"/>
      <point x="261" y="376" type="curve"/>
      <point x="483" y="376" type="line"/>
      <point x="512" y="455" type="line"/>
      <point x="277" y="455" type="line"/>
      <point x="305" y="533"/>
      <point x="367" y="580"/>
      <point x="448" y="580" type="curve" smooth="yes"/>
      <point x="510" y="580"/>
      <point x="569" y="549"/>
      <point x="602" y="499" type="curve"/>
      <point x="705" y="581" type="line"/>
      <point x="645" y="667"/>
      <point x="556" y="711"/>
      <point x="447" y="711" type="curve" smooth="yes"/>
      <point x="287" y="711"/>
      <point x="166" y="610"/>
      <point x="129" y="455" type="curve"/>
      <point x="39" y="455" type="line"/>
      <point x="39" y="376" type="line"/>
      <point x="118" y="376" type="line"/>
      <point x="117" y="367"/>
      <point x="117" y="359"/>
      <point x="117" y="350" type="curve" smooth="yes"/>
      <point x="117" y="341"/>
      <point x="117" y="332"/>
      <point x="118" y="323" type="curve"/>
      <point x="39" y="323" type="line"/>
      <point x="39" y="245" type="line"/>
      <point x="129" y="245" type="line"/>
      <point x="166" y="90"/>
      <point x="287" y="-11"/>
    </contour>
  </outline>
</glyph>
<glyph name="trademark" format="2">
  <advance width="689"/>
  <unicode hex="2122"/>
  <outline>
    <contour>
      <point x="328" y="421" type="line"/>
      <point x="398" y="421" type="line"/>
      <point x="397" y="606" type="line"/>
      <point x="484" y="438" type="line"/>
      <point x="569" y="607" type="line"/>
      <point x="567" y="421" type="line"/>
      <point x="640" y="421" type="line"/>
      <point x="640" y="700" type="line"/>
      <point x="548" y="700" type="line"/>
      <point x="484" y="565" type="line"/>
      <point x="420" y="700" type="line"/>
      <point x="328" y="700" type="line"/>
    </contour>
    <contour>
      <point x="123" y="421" type="line"/>
      <point x="201" y="421" type="line"/>
      <point x="201" y="633" type="line"/>
      <point x="288" y="633" type="line"/>
      <point x="288" y="700" type="line"/>
      <point x="37" y="700" type="line"/>
      <point x="37" y="633" type="line"/>
      <point x="123" y="633" type="line"/>
    </contour>
  </outline>
</glyph>
<glyph name="minus" format="2">
  <advance width="600"/>
  <unicode hex="2212"/>
  <outline>
    <contour>
      <point x="75" y="299" type="line"/>
      <point x="525" y="299" type="line"/>
      <point x="525" y="419" type="line"/>
      <point x="75" y="419" type="line"/>
    </contour>
  </outline>
</glyph>
<glyph name="a.school" format="2">
  <advance width="643"/>
  <anchor x="309" y="516" name="top"/>
  <anchor x="580" y="0" name="bottom"/>
  <outline>
    <contour>
      <point x="268" y="-3" type="curve" smooth="yes"/>
      <point x="329" y="-3"/>
      <point x="386" y="24"/>
      <point x="420" y="67" type="curve"/>
      <point x="420" y="0" type="line"/>
      <point x="580" y="0" type="line"/>
      <point x="580" y="516" type="line"/>
      <point x="418" y="516" type="line"/>
      <point x="418" y="457" type="line"/>
      <point x="383" y="497"/>
      <point x="334" y="519"/>
      <point x="280" y="519" type="curve" smooth="yes"/>
      <point x="146" y="519"/>
      <point x="40" y="404"/>
      <point x="40" y="259" type="curve" smooth="yes"/>
      <point x="40" y="114"/>
      <point x="141" y="-3"/>
    </contour>
    <contour>
      <point x="322" y="131" type="curve" smooth="yes"/>
      <point x="252" y="131"/>
      <point x="199" y="185"/>
      <point x="199" y="258" type="curve" smooth="yes"/>
      <point x="199" y="332"/>
      <point x="251" y="386"/>
      <point x="322" y="386" type="curve" smooth="yes"/>
      <point x="359" y="386"/>
      <point x="393" y="372"/>
      <point x="418" y="346" type="curve"/>
      <point x="418" y="172" type="line"/>
      <point x="393" y="145"/>
      <point x="361" y="131"/>
    </contour>
  </outline>
</glyph>
<glyph name="cordinal" format="2">
  <advance width="424"/>
  <outline>
    <contour>
      <point x="238" y="295" type="curve" smooth="yes"/>
      <point x="304" y="295"/>
      <point x="366" y="323"/>
      <point x="407" y="370" type="curve"/>
      <point x="330" y="450" type="line"/>
      <point x="302" y="418"/>
      <point x="275" y="405"/>
      <point x="241" y="405" type="curve" smooth="yes"/>
      <point x="190" y="405"/>
      <point x="152" y="447"/>
      <point x="152" y="503" type="curve" smooth="yes"/>
      <point x="152" y="559"/>
      <point x="190" y="601"/>
      <point x="241" y="601" type="curve" smooth="yes"/>
      <point x="275" y="601"/>
      <point x="302" y="588"/>
      <point x="330" y="556" type="curve"/>
      <point x="407" y="636" type="line"/>
      <point x="366" y="683"/>
      <point x="304" y="711"/>
      <point x="238" y="711" type="curve" smooth="yes"/>
      <point x="118" y="711"/>
      <point x="26" y="620"/>
      <point x="26" y="503" type="curve" smooth="yes"/>
      <point x="26" y="386"/>
      <point x="118" y="295"/>
    </contour>
  </outline>
</glyph>
<glyph name="g.alt" format="2">
  <advance width="633"/>
  <anchor x="302" y="516" name="top"/>
  <outline>
    <contour>
      <point x="293" y="-219" type="curve" smooth="yes"/>
      <point x="489" y="-219"/>
      <point x="611" y="-150"/>
      <point x="611" y="-40" type="curve" smooth="yes"/>
      <point x="611" y="36"/>
      <point x="545" y="81"/>
      <point x="435" y="85" type="curve" smooth="yes"/>
      <point x="258" y="91" type="line" smooth="yes"/>
      <point x="223" y="92"/>
      <point x="207" y="101"/>
      <point x="207" y="120" type="curve" smooth="yes"/>
      <point x="207" y="132"/>
      <point x="215" y="142"/>
      <point x="228" y="148" type="curve"/>
      <point x="251" y="143"/>
      <point x="276" y="140"/>
      <point x="302" y="140" type="curve" smooth="yes"/>
      <point x="441" y="140"/>
      <point x="548" y="225"/>
      <point x="548" y="332" type="curve" smooth="yes"/>
      <point x="548" y="367"/>
      <point x="536" y="400"/>
      <point x="516" y="428" type="curve"/>
      <point x="532" y="437"/>
      <point x="551" y="441"/>
      <point x="572" y="441" type="curve" smooth="yes"/>
      <point x="587" y="441"/>
      <point x="606" y="438"/>
      <point x="623" y="432" type="curve"/>
      <point x="623" y="558" type="line"/>
      <point x="611" y="562"/>
      <point x="604" y="563"/>
      <point x="592" y="563" type="curve" smooth="yes"/>
      <point x="542" y="563"/>
      <point x="506" y="533"/>
      <point x="478" y="467" type="curve"/>
      <point x="434" y="502"/>
      <point x="372" y="524"/>
      <point x="302" y="524" type="curve" smooth="yes"/>
      <point x="163" y="524"/>
      <point x="56" y="439"/>
      <point x="56" y="332" type="curve" smooth="yes"/>
      <point x="56" y="257"/>
      <point x="108" y="193"/>
      <point x="187" y="161" type="curve"/>
      <point x="119" y="148"/>
      <point x="77" y="110"/>
      <point x="77" y="59" type="curve" smooth="yes"/>
      <point x="77" y="20"/>
      <point x="99" y="-9"/>
      <point x="141" y="-27" type="curve"/>
      <point x="68" y="-38"/>
      <point x="23" y="-67"/>
      <point x="23" y="-106" type="curve" smooth="yes"/>
      <point x="23" y="-181"/>
      <point x="118" y="-219"/>
    </contour>
    <contour>
      <point x="302" y="251" type="curve" smooth="yes"/>
      <point x="248" y="251"/>
      <point x="208" y="286"/>
      <point x="208" y="332" type="curve" smooth="yes"/>
      <point x="208" y="378"/>
      <point x="248" y="413"/>
      <point x="302" y="413" type="curve" smooth="yes"/>
      <point x="356" y="413"/>
      <point x="396" y="378"/>
      <point x="396" y="332" type="curve" smooth="yes"/>
      <point x="396" y="286"/>
      <point x="356" y="251"/>
    </contour>
    <contour>
      <point x="293" y="-121" type="curve" smooth="yes"/>
      <point x="207" y="-121"/>
      <point x="168" y="-108"/>
      <point x="168" y="-74" type="curve" smooth="yes"/>
      <point x="168" y="-60"/>
      <point x="176" y="-49"/>
      <point x="191" y="-41" type="curve"/>
      <point x="211" y="-45"/>
      <point x="234" y="-47"/>
      <point x="259" y="-48" type="curve" smooth="yes"/>
      <point x="409" y="-52" type="line" smooth="yes"/>
      <point x="436" y="-53"/>
      <point x="449" y="-59"/>
      <point x="449" y="-74" type="curve" smooth="yes"/>
      <point x="449" y="-103"/>
      <point x="390" y="-121"/>
    </contour>
  </outline>
</glyph>
<glyph name="gravecomb" format="2">
  <anchor x="310" y="516" name="_top"/>
  <outline>
    <contour>
      <point x="258" y="601" type="line"/>
      <point x="406" y="601" type="line"/>
      <point x="268" y="747" type="line"/>
      <point x="66" y="747" type="line"/>
    </contour>
  </outline>
</glyph>
<glyph name="reversequotedblleft" format="2">
  <advance width="487"/>
  <outline>
    <contour>
      <point x="118" y="446" type="line"/>
      <point x="234" y="446" type="line"/>
      <point x="164" y="750" type="line"/>
      <point x="5" y="750" type="line"/>
    </contour>
    <contour>
      <point x="347" y="446" type="line"/>
      <point x="463" y="446" type="line"/>
      <point x="393" y="750" type="line"/>
      <point x="234" y="750" type="line"/>
    </contour>
  </outline>
</glyph>
